<?xml version="1.0" encoding="iso-8859-1"?>
<!-- Generator: Adobe Illustrator 10.0.3, SVG Export Plug-In . SVG Version: 3.0.0 Build 77)  -->
<!DOCTYPE svg PUBLIC "-//W3C//DTD SVG 1.0//EN"    "http://www.w3.org/TR/2001/REC-SVG-20010904/DTD/svg10.dtd" [
	<!ENTITY ns_flows "http://ns.adobe.com/Flows/1.0/">
	<!ENTITY ns_svg "http://www.w3.org/2000/svg">
	<!ENTITY ns_xlink "http://www.w3.org/1999/xlink">
]>
<svg  xmlns="&ns_svg;" xmlns:xlink="&ns_xlink;" xmlns:a="http://ns.adobe.com/AdobeSVGViewerExtensions/3.0/"
	 width="824.048" height="594.587" viewBox="0 0 824.048 594.587"
	 style="overflow:visible;enable-background:new 0 0 824.048 594.587" xml:space="preserve">
	<g id="Layer_1">
		<g>
			<path style="fill-rule:evenodd;clip-rule:evenodd;" d="M360.576,298.152v26.855h-6.673v-55.583h8.996l3.188,27.72
				c0.089,0.72,0.328,3.456,0.774,8.136c0.298-3.672,0.566-6.624,0.745-7.992l3.247-27.864h8.996v55.583h-6.702l0.089-27.359
				c0-3.312,0-6.408,0.03-9.72c-0.268,2.808-0.566,5.976-0.923,9.36l-0.03,0.504l-2.86,27.216H364.3l-2.86-26.64
				c-0.268-2.376-0.506-5.112-0.953-10.44C360.546,292.68,360.576,296.064,360.576,298.152z"/>
			<path style="fill-rule:evenodd;clip-rule:evenodd;" d="M390.633,297.288c0,10.512,1.4,15.264,4.528,15.264
				c3.068,0,4.469-4.752,4.469-15.264c0-10.656-1.4-15.336-4.469-15.336C392.034,281.952,390.633,286.704,390.633,297.288z
				 M383.186,297.288c0-18.144,4.558-29.304,11.975-29.304c7.358,0,11.916,11.16,11.916,29.304c0,18.072-4.558,29.304-11.916,29.304
				C387.744,326.592,383.186,315.36,383.186,297.288z"/>
			<path style="fill-rule:evenodd;clip-rule:evenodd;" d="M417.737,282.889v10.368h3.366c2.354,0,3.099-1.296,3.099-5.112
				c0-3.96-0.686-5.255-3.307-5.255H417.737z M417.737,325.008h-7.298v-55.583h11.021c6.882,0,9.593,4.607,9.593,15.984
				c0,6.768-1.192,11.16-3.725,13.752c2.562,1.296,3.665,4.896,3.754,12.384l0.119,7.704c0,0.072,0,0.145,0,0.216
				c0.029,2.232,0.269,3.384,0.655,3.456v2.088h-7.447c-0.268-2.663-0.388-4.68-0.388-5.831v-5.544c0-5.761-0.833-7.776-3.157-7.776
				h-3.128V325.008z"/>
			<path style="fill-rule:evenodd;clip-rule:evenodd;" d="M453.692,325.008h-18.856v-55.583h18.41v13.32h-11.022v7.344h9.294v12.816
				h-9.294v8.568h11.469V325.008z"/>
			<path style="fill-rule:evenodd;clip-rule:evenodd;" d="M106.618,545.263c-14.954,0.005-29.907,0.01-44.79,0.015
				C232.041,417.76,289.124,375.011,317.721,353.57c17.196-12.893,28.682-21.496,36.899-27.646c5.065,0,10.131,0,15.207,0
				c-2.639,2.832-5.707,6.148-9.347,10.112c-3.71,0-7.421,0.001-11.119,0.001c-3.286,2.832-7.027,6.041-11.246,9.682
				c3.535,0,7.07-0.001,10.621-0.001c-6.546,6.741-14.809,15.236-25.69,26.428c-5.2,0.001-10.376,0.002-15.553,0.003
				c-12.231,10.518-27.957,24.071-49.131,42.314C228.356,440.314,182.805,479.594,106.618,545.263z"/>
			<path style="fill-rule:evenodd;clip-rule:evenodd;" d="M289.163,545.201c-35.126,0.013-70.182,0.023-105.309,0.035
				c109.533-127.493,146.261-170.234,164.66-191.672c11.062-12.889,18.452-21.491,23.738-27.64c2.151,0,4.322,0,6.482,0
				c-2.962,4.314-6.703,9.785-11.566,16.906c-6.646,9.731-16.183,23.675-31.02,45.354c7.789-0.002,15.605-0.004,23.422-0.006
				c-5.118,11.458-11.469,25.584-19.641,43.812C328.701,457.035,313.138,491.765,289.163,545.201z"/>
			<path style="fill-rule:evenodd;clip-rule:evenodd;" d="M389.507,353.692c-2.389,10.676-3.998,20.84-4.172,29.169
				c-0.21,10.082,1.736,15.688,5.841,15.688c3.894-0.001,7.106-5.608,9.292-15.69c1.806-8.33,2.662-18.493,2.794-29.168
				c0.098-8.087-0.291-12.805-1.089-15.446c-0.724-2.398-1.875-3.478-3.504-3.478c-1.718,0-3.146,1.08-4.441,3.479
				C392.799,340.888,391.326,345.604,389.507,353.692z M378.072,353.694c5.094-12.698,9.183-19.864,12.646-23.753
				c2.923-3.283,5.931-4.934,9.094-4.934c3.125,0,5.717,1.649,7.83,4.934c2.499,3.886,4.882,11.051,6.949,23.747
				c3.354,20.701,5.116,50.703,2.808,88.2c-4.526,73.539-22.949,152.689-49.371,152.698c-26.758,0.01-26.546-79.163-13.704-152.707
				C360.866,404.408,369.786,374.4,378.072,353.694z"/>
			<path style="fill-rule:evenodd;clip-rule:evenodd;" d="M429.648,353.686c4.195,10.673,8.887,20.835,13.889,29.189
				c6.036,10.08,11.416,15.685,15.521,15.684c3.894-0.001,3.655-5.616-0.413-15.688c-3.38-8.364-8.831-18.516-15.276-29.188
				c-4.92-8.085-8.216-12.803-10.646-15.442c-2.21-2.4-4.02-3.477-5.648-3.477c-1.718,0-2.479,1.078-2.284,3.478
				C425.004,340.883,426.445,345.6,429.648,353.686z M418.213,353.688c-2.778-12.695-3.112-19.864-2.075-23.747
				c0.879-3.287,2.889-4.933,6.053-4.933c3.124,0,6.707,1.652,10.85,4.933c4.912,3.888,11.725,11.048,21.656,23.741
				c16.135,20.696,36.465,50.689,57.358,88.179c40.975,73.52,71.64,152.653,45.218,152.662
				c-26.759,0.01-75.569-79.119-108.209-152.644C432.419,404.387,422.72,374.389,418.213,353.688z"/>
			<path style="fill-rule:evenodd;clip-rule:evenodd;" d="M452.218,335.544c3.486,3.368,7.521,7.275,12.242,11.856
				c1.546,0,3.108-0.001,4.671-0.001c3.27-0.001,1.983-1.94-3.562-6.602c-4.694-3.961-6.944-5.254-9.872-5.254
				C454.529,335.544,453.373,335.544,452.218,335.544z M668.498,545.075c-14.671,0.005-29.342,0.01-43.942,0.015
				C514.94,417.708,478.157,374.966,459.724,353.546c-11.088-12.884-18.496-21.478-23.794-27.621c3.201,0,6.411,0,9.621-0.001
				c3.007,0,5.946,0.645,9.327,2.21c3.718,1.721,8.405,4.741,15.358,9.914c10.66,7.895,17.786,14.496,19.92,19.185
				c7.316,2.479,20.617,11.019,55.999,37.072c18.032,13.31,41.326,30.525,71.788,53.05l2.806,2.074
				c39.638,29.125,66.45,48.173,68.576,48.172c20.467,14.953,40.934,29.934,64.873,47.446c-15.095,0.005-30.188,0.01-45.283,0.015
				c-67.59-55.666-103.008-85.358-117.583-97.699c-20.444-17.325-36.778-31.147-50.271-42.545
				c-29.664-25.112-39.204-31.714-43.793-31.712c-2.109,0-4.196,0.001-6.282,0.001c10.97,10.617,25.026,24.217,43.749,42.359
				C561.451,441.354,601.659,480.324,668.498,545.075z"/>
			<path style="fill-rule:evenodd;clip-rule:evenodd;" d="M219.069,423.06c-20.712,15.062-46.603,33.904-80.354,58.449
				c-17.5-52.464-34.022-113.684-54.196-182.766C60.958,218.067,29.544,124.245,0,15.528c77.172,55.43,125.34,90.022,161.847,116.27
				c5.658,39.049,11.856,76.277,16.723,111.705c4.608,33.54,8.179,65.983,12.403,96.994c4.704-31.553,9.674-61.668,14.177-90.326
				c4.295-27.337,7.789-53.785,11.475-79.042c14.818,10.625,26.776,19.213,37.138,26.669c2.122,22.745,4.378,44.824,6.443,66.189
				c1.999,20.689,3.694,40.837,5.451,60.386c1.592-19.75,3.217-39.044,4.81-57.813c1.548-18.25,3.064-36.105,4.428-53.588
				c7.576,5.454,14.001,10.075,19.832,14.256c-2.223,22.413-4.544,45.852-7.01,70.411c-2.587,25.772-5.095,52.789-8.037,81.312
				c-8.122,5.912-17.583,12.776-28.834,20.973c-2.091-19.129-4.394-38.848-6.901-59.098c-2.598-20.978-5.14-42.736-7.707-65.216
				c-2.454,22.513-4.802,45.777-7.664,69.75C225.589,370.354,222.239,396.268,219.069,423.06z"/>
			<path style="fill-rule:evenodd;clip-rule:evenodd;" d="M316.75,276.833c-0.564,6.224-1.152,12.529-1.694,18.931
				c-0.55,6.49-1.093,13.08-1.695,19.772c2.27-0.534,4.465-1.049,6.512-1.525c-0.515-5.979-0.996-12.042-1.507-18.188
				C317.849,289.588,317.301,283.261,316.75,276.833z M309.705,357.076c-4.358,3.181-9.164,6.685-14.528,10.579
				c3.158-24.879,6.012-48.148,8.72-70.082c2.55-20.653,4.957-40.146,7.17-58.601c3.937,2.807,7.465,5.367,10.659,7.661
				c1.619,17.72,3.207,34.642,4.674,50.83c1.405,15.495,2.727,30.336,4.018,44.569c-2.422,1.752-4.992,3.633-7.861,5.695
				c-0.293-4.199-0.625-8.431-0.955-12.719c-3.128,1.688-6.628,3.57-10.464,5.63C310.648,346.077,310.195,351.554,309.705,357.076z"
				/>
			<path style="fill-rule:evenodd;clip-rule:evenodd;" d="M344.648,331.66c-3.465,2.548-7.562,5.502-12.294,8.96
				c0.012-14.395,0.041-28.789,0.034-43.184c-0.007-14.386-0.015-28.764-0.004-43.149c2.117,1.526,4.122,2.952,5.942,4.268
				c-0.006,9.499-0.012,19.014-0.018,28.505c-0.006,9.499-0.012,19.005-0.018,28.504c2.345-0.79,4.429-1.516,6.365-2.179
				c-0.001,3.045-0.003,6.105-0.004,9.145C344.65,325.575,344.649,328.622,344.648,331.66z"/>
			<path style="fill-rule:evenodd;clip-rule:evenodd;" d="M353.961,324.941c-2.272,1.629-4.806,3.46-7.674,5.535
				c0.004-11.035,0.008-22.07,0.012-33.098c0.003-11.028,0.008-22.057,0.012-33.085c1.263,0.905,2.451,1.755,3.565,2.564
				c-0.001,7.456-0.003,14.924-0.004,22.374c-0.001,7.456-0.003,14.917-0.005,22.374c1.452-0.49,2.829-0.949,4.095-1.381
				c0,2.453,0,4.917,0,7.364C353.961,320.042,353.961,322.494,353.961,324.941z"/>
			<path style="fill-rule:evenodd;clip-rule:evenodd;fill:#FFFFFF;" d="M300.197,251.557c9.326,4.612,16.792,8.324,23.073,11.436
				c5.349,2.65,9.846,4.898,13.822,6.863c-0.006,9.231-0.012,18.471-0.018,27.702s-0.012,18.479-0.018,27.719
				c-3.947,2.021-8.49,4.341-13.814,7.062c-6.292,3.215-13.777,7.04-23.086,11.797c0.019-15.447,0.001-30.882,0.021-46.303
				S300.178,266.978,300.197,251.557z"/>
			<path style="fill-rule:evenodd;clip-rule:evenodd;" d="M305.369,341.473c-1.638,0.837-3.463,1.766-5.25,2.693
				c0.019-15.511,0.001-30.995,0.021-46.479c0.019-15.484,0.002-30.968,0.021-46.452c1.783,0.905,3.604,1.81,5.239,2.627
				c0.735,7.071,1.484,14.068,2.206,20.895c0.712,6.73,1.509,13.369,2.171,19.865c0.257,2.352,0.551,6.229,0.879,11.897
				c-0.108-3.088-0.142-6.185-0.173-11.355c0.007-6.461,0.015-12.922,0.022-19.383c0.007-6.449,0.015-12.91,0.022-19.371
				c1.412,0.709,2.861,1.419,4.199,2.103c-0.014,13.029,0.009,26.058-0.005,39.086s0.009,26.058-0.005,39.108
				c-1.378,0.701-2.83,1.429-4.245,2.156c-0.663-6.057-1.35-12.205-2.062-18.439c-0.724-6.343-1.436-12.804-2.172-19.388
				c-0.295-2.435-0.661-7.095-0.952-12.595c0.108,3.028,0.104,5.769,0.098,11.816c-0.008,6.865,0.002,13.73,0.013,20.596
				C305.403,327.717,305.377,334.595,305.369,341.473z"/>
			<path style="fill-rule:evenodd;clip-rule:evenodd;" d="M325.923,330.967c-2.718,1.395-5.66,2.902-8.862,4.53
				c0.013-12.652,0.045-25.283,0.04-37.913c-0.005-12.631-0.011-25.261,0.002-37.892c3.121,1.557,5.982,2.999,8.694,4.341
				c-0.005,5.329-0.01,10.638-0.015,15.947c-1.599-0.416-3.234-0.834-4.981-1.286c-0.003,3.246-0.006,6.482-0.01,9.718
				c1.488,0.183,2.863,0.35,4.239,0.517c-0.005,5.175,0.028,10.34,0.023,15.505c-1.376,0.146-2.753,0.293-4.241,0.456
				c-0.003,3.691-0.007,7.382-0.011,11.062c1.823-0.466,3.498-0.907,5.136-1.342C325.933,320.059,325.927,325.518,325.923,330.967z"
				/>
			<path style="fill-rule:evenodd;clip-rule:evenodd;" d="M331.434,328.161c-0.931,0.46-1.825,0.916-2.718,1.374
				c-0.363-10.55-0.729-21.222-1.089-32.012c-0.364-10.912-0.687-21.947-1.049-33.103c0.929,0.473,1.895,0.947,2.787,1.399
				c0.143,6.873,0.286,13.716,0.429,20.534c0.143,6.785,0.324,13.538,0.467,20.257c0.192-6.732,0.327-13.429,0.5-20.086
				c0.172-6.621,0.383-13.194,0.537-19.731c0.706,0.351,1.375,0.687,2.043,1.022c0.144,6.44,0.287,12.848,0.432,19.231
				c0.144,6.351,0.325,12.67,0.47,18.954c0.116-6.297,0.25-12.567,0.386-18.812c0.134-6.217,0.231-12.4,0.385-18.553
				c0.669,0.351,1.412,0.706,2.081,1.041c-0.266,9.179-0.571,18.444-0.836,27.797c-0.268,9.447-0.571,18.995-0.838,28.636
				c-0.745,0.375-1.489,0.76-2.271,1.168c-0.144-5.888-0.289-11.794-0.433-17.744c-0.144-5.97-0.288-11.978-0.432-18.013
				c-0.117,6.038-0.289,12.106-0.423,18.191C331.722,315.833,331.587,321.978,331.434,328.161z"/>
			<path style="fill-rule:evenodd;clip-rule:evenodd;fill:#FFFFFF;" d="M339.21,270.903c3.158,1.584,5.984,2.982,8.546,4.244
				c2.269,1.118,4.31,2.138,6.205,3.064c0,6.412,0,12.823,0,19.229s0,12.817,0,19.229c-1.899,0.954-3.945,2.006-6.218,3.157
				c-2.567,1.3-5.399,2.739-8.564,4.372c0.005-8.886,0.011-17.771,0.016-26.648C339.199,288.673,339.205,279.788,339.21,270.903z"/>
			<path style="fill-rule:evenodd;clip-rule:evenodd;" d="M340.965,323.291c-0.595,0.304-1.229,0.609-1.824,0.915
				c0.005-8.918,0.011-17.829,0.016-26.739c0.005-8.911,0.011-17.821,0.016-26.739c0.594,0.298,1.226,0.597,1.82,0.894
				c0.221,4.103,0.478,8.178,0.737,12.186c0.257,3.977,0.517,7.93,0.775,11.827c0.073,1.417,0.184,3.758,0.294,7.189
				c-0.037-1.869-0.035-3.741-0.034-6.867c0.002-3.905,0.004-7.811,0.006-11.715c0.002-3.898,0.004-7.803,0.006-11.715
				c0.52,0.26,1.04,0.521,1.561,0.783c-0.004,8.047-0.007,16.087-0.011,24.126c-0.003,8.04-0.007,16.08-0.01,24.127
				c-0.521,0.269-1.042,0.534-1.564,0.801c-0.259-3.717-0.5-7.479-0.739-11.274c-0.241-3.835-0.517-7.709-0.738-11.629
				c-0.111-1.443-0.258-4.196-0.331-7.436c0.037,1.783,0.036,3.4,0.034,6.967c-0.002,4.049-0.005,8.098-0.007,12.146
				C340.97,315.186,340.968,319.242,340.965,323.291z"/>
			<path style="fill-rule:evenodd;clip-rule:evenodd;" d="M348.859,319.254c-1.117,0.58-2.346,1.198-3.611,1.845
				c0.003-7.894,0.006-15.78,0.009-23.667c0.003-7.887,0.006-15.774,0.009-23.668c1.226,0.62,2.415,1.211,3.53,1.764
				c-0.001,3.479-0.002,6.953-0.002,10.42c-0.669-0.172-1.338-0.346-2.045-0.53c-0.001,2.065-0.001,4.125-0.002,6.183
				c0.595,0.074,1.19,0.145,1.71,0.212c-0.001,3.366-0.002,6.725-0.003,10.084c-0.521,0.061-1.116,0.123-1.711,0.188
				c0,2.349-0.001,4.697-0.002,7.039c0.745-0.194,1.415-0.379,2.122-0.562C348.861,312.125,348.861,315.692,348.859,319.254z"/>
			<path style="fill-rule:evenodd;clip-rule:evenodd;" d="M351.28,318.021c-0.41,0.203-0.782,0.404-1.191,0.614
				c-0.185-7.027-0.333-14.101-0.479-21.229c-0.147-7.18-0.332-14.413-0.478-21.704c0.409,0.203,0.817,0.406,1.226,0.611
				c0.073,4.565,0.128,9.111,0.183,13.647c0.055,4.523,0.147,9.031,0.221,13.524c0.075-4.499,0.15-8.982,0.226-13.449
				c0.075-4.45,0.15-8.877,0.225-13.294c0.334,0.162,0.668,0.317,0.966,0.471c0.074,4.371,0.167,8.721,0.222,13.062
				c0.055,4.326,0.111,8.638,0.185,12.934c0.075-4.302,0.112-8.591,0.187-12.866c0.074-4.262,0.112-8.507,0.187-12.744
				c0.334,0.164,0.669,0.329,1.003,0.494c-0.149,6.391-0.298,12.819-0.409,19.292c-0.112,6.517-0.261,13.076-0.373,19.685
				c-0.372,0.177-0.745,0.362-1.08,0.548c-0.074-4.012-0.148-8.032-0.222-12.066c-0.074-4.048-0.11-8.114-0.185-12.193
				c-0.075,4.08-0.168,8.175-0.225,12.276C351.411,309.745,351.355,313.875,351.28,318.021z"/>
			<path style="fill-rule:evenodd;clip-rule:evenodd;fill:#FFFFFF;" d="M6.893,106.052
				c124.024,61.516,186.563,92.531,225.607,111.896c25.866,12.829,44.512,22.099,58.743,29.167
				c0.015,16.909,0.01,33.848,0.006,50.771c-0.004,16.925-0.044,33.878-0.03,50.831c-14.261,7.289-32.951,16.854-58.869,30.112
				c-39.095,19.999-101.802,52.077-226.205,115.73c0.125-64.826,0.25-129.652,0.374-194.366
				C6.643,235.481,6.768,170.71,6.893,106.052z"/>
			<path style="fill-rule:evenodd;clip-rule:evenodd;" d="M86.908,453.215c-22.713,11.631-50.975,26.096-79.237,40.56
				c0.125-64.791,0.249-129.526,0.374-194.205c0.124-64.68,0.249-129.359,0.374-193.983c28.201,14.069,56.364,28.138,79.029,39.451
				c7.908,27.15,16.046,53.287,24.178,77.813c7.772,23.442,16.281,45.635,24.426,66.499c2.665,7.32,4.912,19.235,7.484,36.456
				c-0.764-9.385-1.156-18.844-1.165-34.672c0.036-19.776,0.072-39.553,0.107-59.329c0.036-19.74,0.034-39.48,0.07-59.256
				c12.075,6.029,24.15,12.057,36.078,18.007c-0.026,35.938-0.089,71.908-0.115,107.877c-0.026,35.969-0.089,71.97-0.115,108.001
				c-11.953,6.112-24.054,12.305-36.193,18.498c-5.735-16.907-14.119-33.754-21.853-52.082
				c-8.192-19.414-15.92-40.221-23.876-62.213c-3.22-8.346-6.984-24.608-10.184-44.068c0.91,10.709,0.892,20.351,0.89,41.624
				c-0.045,24.148-0.091,48.297-0.136,72.489C86.999,404.83,86.954,429.022,86.908,453.215z"/>
			<path style="fill-rule:evenodd;clip-rule:evenodd;" d="M246.462,371.611c-14,7.161-30.979,15.849-51.794,26.49
				c0.02-33.287,0.077-66.546,0.097-99.776c0.02-33.229,0.077-66.46,0.097-99.661c20.324,10.148,37.118,18.523,50.754,25.333
				c-0.019,11.753,0,23.486-0.019,35.219c-8.141-2.111-16.394-4.242-26.765-6.925c-0.013,7.895-0.026,15.763-0.04,23.632
				c8.739,1.066,16.027,1.96,22.943,2.8c-0.019,11.605,0,23.188-0.018,34.772c-6.92,0.751-14.212,1.55-22.955,2.501
				c-0.015,8.976-0.03,17.95-0.045,26.926c10.792-2.852,19.241-5.087,27.763-7.337C246.463,347.58,246.481,359.596,246.462,371.611z
				"/>
			<path style="fill-rule:evenodd;clip-rule:evenodd;" d="M270.517,359.309c-3.649,1.861-7.298,3.722-11.245,5.749
				c-1.679-21.824-3.356-44.186-4.957-67.107c-1.638-23.469-3.273-47.502-4.871-72.055c4.272,2.143,8.545,4.286,12.669,6.346
				c0.573,14.336,1.218,28.574,1.795,42.686c0.571,13.983,1.26,27.833,1.872,41.545c0.728-13.771,1.413-27.389,2.144-40.853
				c0.722-13.312,1.415-26.451,2.141-39.42c2.936,1.475,5.462,2.734,7.988,3.994c0.54,12.595,1.115,25.085,1.658,37.469
				c0.538,12.262,1.118,24.402,1.697,36.416c0.5-12.062,1-24.015,1.426-35.872c0.424-11.767,0.851-23.425,1.313-34.963
				c2.415,1.211,4.83,2.422,7.208,3.596c-0.877,16.663-1.838,33.623-2.783,50.903c-0.962,17.6-1.946,35.535-2.9,53.805
				c-2.532,1.309-5.399,2.772-8.416,4.301c-0.542-11.374-1.142-22.818-1.662-34.413c-0.524-11.683-1.045-23.491-1.585-35.409
				c-0.501,11.924-1.061,23.96-1.652,36.09C271.759,334.388,271.13,346.776,270.517,359.309z"/>
			<path style="fill-rule:evenodd;clip-rule:evenodd;" d="M458.335,327.421c-1.076-0.782-2.077-1.522-3.079-2.225
				c-0.335-9.292-0.666-18.422-1.003-27.379c-0.331-8.795-0.63-17.438-0.964-25.924c0.814-0.616,1.701-1.267,2.626-1.95
				c0.186,5.905,0.354,11.861,0.521,17.863c0.169,6.053,0.336,12.167,0.485,18.331c0.222-6.145,0.388-12.357,0.589-18.626
				c0.203-6.336,0.44-12.747,0.661-19.228c0.924-0.675,1.886-1.388,2.921-2.141c0.225,6.68,0.488,13.428,0.712,20.241
				c0.226,6.89,0.487,13.861,0.749,20.906c0.22-7.021,0.439-14.118,0.657-21.278c0.22-7.222,0.438-14.539,0.692-21.933
				c1.368-1.009,2.848-2.096,4.438-3.254c-0.621,12.612-1.235,24.925-1.828,36.916c-0.578,11.718-1.173,23.167-1.686,34.356
				c-1.409-1.031-2.745-1.995-4.006-2.898c-0.225-6.4-0.449-12.74-0.675-19.008c-0.223-6.201-0.448-12.348-0.636-18.433
				c-0.22,6.086-0.421,12.113-0.624,18.079C458.685,315.755,458.519,321.619,458.335,327.421z"/>
			<path style="fill-rule:evenodd;clip-rule:evenodd;" d="M478.386,280.903c-0.365,5.201-0.748,10.348-1.135,15.417
				c-0.382,5.008-0.769,9.952-1.099,14.841c1.445,0.331,3.002,0.672,4.633,1.041c-0.45-5.387-0.86-10.702-1.237-15.946
				C479.175,291.078,478.761,285.955,478.386,280.903z M474.174,338.858c-2.04-1.456-3.895-2.811-5.638-4.079
				c0.919-11.895,1.858-24.246,2.901-37.064c1.086-13.337,2.238-27.203,3.411-41.665c2.292-1.678,4.771-3.493,7.47-5.485
				c1.606,14.914,3.24,30.589,4.971,47.049c1.823,17.333,3.669,35.594,5.766,54.897c-3.598-2.607-6.899-4.98-9.867-7.128
				c-0.338-4.403-0.639-8.75-0.901-13.059c-2.67-1.417-5.117-2.706-7.342-3.9C474.688,331.937,474.431,335.423,474.174,338.858z"/>
			<path style="fill-rule:evenodd;clip-rule:evenodd;" d="M542.984,388.601c-20.625-14.911-35.426-25.61-46.554-33.647
				c-0.022-19.134-0.026-38.278-0.03-57.389c-0.004-19.099-0.008-38.21-0.03-57.309c4.327-3.174,9.208-6.742,14.755-10.821
				c0.022,16.63,0.025,33.274,0.029,49.905c0.003,16.63,0.007,33.301,0.029,49.945c8.599,2.873,18.865,6.316,31.764,10.63
				c0.012,8.103,0.006,16.223,0,24.343C542.94,372.378,542.972,380.498,542.984,388.601z"/>
			<path style="fill-rule:evenodd;clip-rule:evenodd;" d="M824.048,591.714C666.137,477.612,596.437,427.212,557.266,398.915
				c-0.018-33.917-0.071-67.834-0.088-101.71c-0.017-33.814-0.033-67.67-0.05-101.485c14.089-10.339,32.061-23.485,54.767-40.153
				c0.06,34.558,0.083,69.117,0.106,103.646c0.023,34.559,0.046,69.202,0.069,103.817c41.215,13.8,104.186,34.904,211.671,70.902
				c0.051,26.237,0.102,52.594,0.153,78.891C823.945,539.119,823.996,565.417,824.048,591.714z"/>
			<path style="fill-rule:evenodd;clip-rule:evenodd;fill:#FFFFFF;" d="M470.086,271.237c3.922-1.976,8.471-4.298,13.763-7.001
				c6.288-3.211,14.022-7.143,23.493-11.977c-0.018,15.152-0.016,30.316-0.016,45.468c0.001,15.178,0.04,30.369,0.022,45.56
				c-9.455-4.788-17.211-8.674-23.507-11.862c-5.271-2.669-9.826-4.977-13.719-6.934c-0.006-8.88-0.013-17.76-0.019-26.631
				C470.099,288.989,470.092,280.117,470.086,271.237z"/>
			<path style="fill-rule:evenodd;clip-rule:evenodd;" d="M472.125,325.509c-0.704-0.364-1.372-0.696-2.002-1.028
				c-0.006-8.906-0.013-17.806-0.019-26.705c-0.006-8.898-0.013-17.789-0.019-26.688c0.666-0.337,1.332-0.674,2.035-1.044
				c0.336,4.145,0.675,8.336,1.009,12.579c0.339,4.301,0.71,8.653,1.047,13.05c0.149,1.623,0.263,4.343,0.451,8.359
				c-0.076-2.192-0.077-4.379-0.043-8.01c-0.004-4.528-0.008-9.065-0.011-13.602c-0.004-4.537-0.008-9.074-0.012-13.62
				c0.777-0.407,1.591-0.814,2.405-1.245c0.009,10.059-0.002,20.117-0.012,30.184c-0.01,10.068,0.018,20.144,0.026,30.22
				c-0.815-0.424-1.632-0.824-2.41-1.226c-0.374-4.61-0.747-9.161-1.086-13.639c-0.334-4.426-0.636-8.809-0.973-13.148
				c-0.149-1.579-0.263-4.537-0.413-7.996c0.038,1.904,0.039,3.638,0.005,7.457c0.004,4.36,0.007,8.712,0.01,13.056
				S472.122,321.165,472.125,325.509z"/>
			<path style="fill-rule:evenodd;clip-rule:evenodd;" d="M486.733,332.879c-2.929-1.478-5.599-2.84-8.083-4.098
				c-0.009-10.353-0.037-20.705-0.027-31.049s0.019-20.679,0.01-31.014c2.404-1.251,5.031-2.597,7.88-4.05
				c0.006,5.56,0.012,11.13,0.017,16.68c-1.702,0.46-3.405,0.917-4.96,1.347c0.003,2.921,0.006,5.843,0.009,8.764
				c1.296-0.172,2.703-0.361,4.11-0.551c0.005,5.286,0.011,10.561,0.016,15.847c-1.444-0.141-2.853-0.282-4.148-0.409
				c0.003,3.332,0.006,6.664,0.009,9.996c1.594,0.411,3.372,0.859,5.151,1.318C486.722,321.4,486.728,327.14,486.733,332.879z"/>
			<path style="fill-rule:evenodd;clip-rule:evenodd;" d="M494.631,336.864c-1.446-0.727-2.855-1.444-4.264-2.159
				c-0.495-12.515-0.969-24.849-1.448-37.027c-0.472-12-0.914-23.84-1.407-35.524c1.221-0.627,2.441-1.254,3.773-1.94
				c0.269,7.971,0.5,15.989,0.73,24.053c0.231,8.125,0.499,16.302,0.731,24.534c0.286-8.214,0.537-16.488,0.823-24.824
				c0.287-8.385,0.573-16.841,0.822-25.357c1.258-0.646,2.59-1.327,3.922-2.008c0.307,8.703,0.596,17.495,0.883,26.326
				c0.29,8.91,0.615,17.882,0.959,26.923c0.285-9.032,0.553-18.106,0.855-27.257c0.305-9.206,0.606-18.5,0.929-27.847
				c1.738-0.887,3.478-1.773,5.401-2.762c-0.832,15.462-1.548,30.658-2.237,45.598c-0.681,14.736-1.334,29.243-2.021,43.533
				c-1.816-0.921-3.559-1.791-5.116-2.586c-0.306-8.29-0.611-16.532-0.881-24.676c-0.269-8.087-0.575-16.141-0.881-24.124
				c-0.25,7.985-0.536,15.924-0.824,23.786C495.096,321.337,494.845,329.124,494.631,336.864z"/>
			<path style="fill-rule:evenodd;clip-rule:evenodd;fill:#FFFFFF;" d="M514.112,248.781c14.096-7.165,33.112-16.866,59.491-30.315
				c40.845-20.824,111.139-56.644,249.471-127.104c0.134,68.526,0.267,137.052,0.4,205.578c0.133,68.644,0.267,137.347,0.4,206.111
				c-138.779-70.053-209.227-105.64-250.195-126.302c-26.437-13.333-45.457-22.945-59.546-30.043
				c0.015-16.342-0.025-32.67-0.029-48.997C514.102,281.409,514.098,265.095,514.112,248.781z"/>
			<path style="fill-rule:evenodd;clip-rule:evenodd;" d="M521.215,350.26c-2.446-1.231-4.783-2.405-7.118-3.579
				c0.015-16.39-0.026-32.751-0.029-49.127c-0.004-16.347-0.007-32.695,0.008-49.042c2.331-1.192,4.661-2.384,7.104-3.635
				c1.27,7.592,2.537,15.37,3.81,23.348c1.305,8.18,2.579,16.576,3.851,25.174c0.523,3.192,1.05,8.559,1.765,16.515
				c-0.229-4.351-0.346-8.682-0.356-15.865c-0.013-8.959,0.011-17.936-0.002-26.896c-0.013-8.959-0.026-17.952-0.002-26.928
				c3.329-1.706,6.696-3.429,10.062-5.153c-0.005,20.789-0.029,41.561-0.017,62.35c0.014,20.825,0.026,41.65,0.021,62.493
				c-3.337-1.697-6.711-3.395-10.048-5.074c-1.311-9.383-2.568-18.554-3.855-27.496c-1.258-8.734-2.507-17.286-3.777-25.644
				c-0.523-3.023-1.087-8.654-1.577-15.226c0.153,3.611,0.158,6.921,0.131,14.176c0.012,8.268,0.023,16.536,0.034,24.789
				C521.229,333.709,521.203,341.992,521.215,350.26z"/>
			<path style="fill-rule:evenodd;clip-rule:evenodd;" d="M590.957,385.449c-17.463-8.807-31.516-15.88-43.307-21.836
				c0.004-22.087-0.012-44.155-0.027-66.224c-0.016-22.03,0.005-44.042,0.008-66.072c11.506-5.905,25.01-12.83,41.991-21.546
				c0.023,13.887,0.048,27.773,0.034,41.635c-10.18,2.752-19.841,5.365-27.726,7.524c-0.026,6.593-0.016,13.185-0.005,19.777
				c6.665-0.886,14.366-1.914,22.956-3.08c-0.015,12.986,0.007,25.972-0.008,38.934c-8.558-0.83-16.263-1.598-22.931-2.259
				c0.012,7.52,0.023,15.039-0.001,22.558c8.227,2.105,18.343,4.69,28.979,7.377C590.908,356.649,590.933,371.037,590.957,385.449z"
				/>
			<path style="fill-rule:evenodd;clip-rule:evenodd;" d="M651.912,416.234c-12.829-6.475-25.51-12.885-35.705-18.025
				c-3.507-34.904-6.968-68.606-10.399-101.092c-3.308-31.312-6.81-61.414-10.229-90.406c8.842-4.527,17.647-9.054,26.563-13.628
				c2.001,21.58,4.228,43.546,6.301,65.994c2.118,22.924,4.453,46.286,6.681,70.199c2.439-23.75,4.865-47.972,7.277-72.769
				c2.46-25.297,4.907-51.17,7.304-77.544c10.471-5.366,24.788-12.705,40.475-20.735c3.533,28.41,7.096,57.616,10.569,87.559
				c3.565,30.732,7.042,62.2,10.77,94.537c3.051-32.099,5.987-64.799,9.148-98.202c3.229-34.13,8.387-69.722,13.761-106.56
				c29.302-15.019,58.936-30.201,88.645-45.443c-11.71,72.803-23.072,141.602-34.784,206.34
				c-11.046,61.062-22.774,118.104-34.192,171.401c-30.625-15.459-49.238-24.867-67.851-34.274
				c-3.535-28.758-7.177-56.868-10.563-84.028c-3.305-26.503-6.837-52.437-10.18-77.576c-2.99,25.157-5.279,49.874-7.347,74.063
				C656.125,369.815,653.944,393.216,651.912,416.234z"/>
			<path style="fill-rule:evenodd;clip-rule:evenodd;fill:#FFFFFF;" d="M453.363,279.808c1.739-0.895,3.662-1.891,5.809-2.986
				c2.404-1.228,5.105-2.609,8.177-4.163c0.005,8.403,0.011,16.806,0.016,25.208c0.005,8.403,0.01,16.821,0.015,25.231
				c-3.077-1.539-5.784-2.907-8.193-4.123c-2.151-1.085-4.079-2.07-5.821-2.957c0-6.033-0.001-12.07-0.001-18.103
				C453.363,291.883,453.363,285.845,453.363,279.808z"/>
			<path style="fill-rule:evenodd;clip-rule:evenodd;" d="M454.291,316.494c-0.297-0.161-0.631-0.315-0.927-0.471
				c0-6.055-0.001-12.11-0.001-18.166c0-6.054,0-12.109,0-18.165c0.296-0.157,0.629-0.314,0.925-0.478
				c0.148,2.817,0.298,5.657,0.445,8.521c0.148,2.888,0.297,5.799,0.445,8.734c0.074,1.079,0.111,2.881,0.223,5.534
				c-0.037-1.45-0.037-2.894-0.038-5.298c0-3.005,0-6.011-0.001-9.016c0-3.005-0.001-6.016-0.001-9.027
				c0.333-0.179,0.703-0.358,1.036-0.54c0.001,6.575,0.003,13.149,0.003,19.723c0.002,6.574,0.003,13.149,0.004,19.724
				c-0.334-0.18-0.704-0.355-1.038-0.531c-0.186-3.014-0.334-6.004-0.482-8.965c-0.148-2.938-0.261-5.856-0.409-8.753
				c-0.073-1.059-0.147-3.045-0.186-5.378c0,1.281,0,2.452,0.001,5.019c0,2.925,0,5.85,0,8.77
				C454.291,310.649,454.291,313.574,454.291,316.494z"/>
			<path style="fill-rule:evenodd;clip-rule:evenodd;" d="M460.334,319.551c-1.148-0.573-2.225-1.116-3.225-1.634
				c-0.002-6.691-0.003-13.383-0.005-20.074c-0.001-6.691-0.003-13.382-0.004-20.074c0.962-0.512,2.034-1.052,3.145-1.62
				c0.001,3.446,0.002,6.891,0.003,10.325c-0.666,0.179-1.332,0.364-1.961,0.531c0,1.864,0.001,3.722,0.001,5.58
				c0.519-0.076,1.074-0.149,1.667-0.224c0.001,3.285,0.002,6.569,0.003,9.848c-0.593-0.056-1.148-0.11-1.667-0.156
				c0,2.119,0.001,4.238,0.002,6.357c0.667,0.159,1.334,0.334,2.038,0.511C460.332,312.467,460.333,316.012,460.334,319.551z"/>
			<path style="fill-rule:evenodd;clip-rule:evenodd;" d="M463.227,321.013c-0.519-0.261-1.001-0.52-1.521-0.771
				c-0.188-7.54-0.357-15.013-0.527-22.422c-0.169-7.35-0.376-14.632-0.563-21.862c0.48-0.238,0.925-0.476,1.405-0.721
				c0.076,4.826,0.189,9.675,0.266,14.538c0.076,4.88,0.189,9.78,0.266,14.7c0.109-4.913,0.2-9.848,0.29-14.804
				c0.09-4.979,0.218-9.985,0.289-15.006c0.444-0.219,0.888-0.454,1.332-0.688c0.113,5.088,0.209,10.205,0.304,15.336
				c0.096,5.155,0.228,10.323,0.342,15.53c0.071-5.199,0.143-10.405,0.251-15.638c0.108-5.254,0.179-10.538,0.287-15.838
				c0.555-0.287,1.146-0.573,1.702-0.871c-0.217,8.511-0.434,16.936-0.651,25.295c-0.217,8.284-0.435,16.501-0.652,24.645
				c-0.594-0.298-1.149-0.577-1.669-0.851c-0.113-4.787-0.209-9.561-0.304-14.298c-0.095-4.719-0.228-9.438-0.304-14.116
				c-0.108,4.679-0.198,9.358-0.289,14C463.39,311.796,463.336,316.416,463.227,321.013z"/>
			<path style="fill-rule:evenodd;clip-rule:evenodd;" d="M345.841,250.55c2.475,0,4.965,0,7.44,0
				c7.088,7.928,10.616,12.727,11.793,15.504c1.028,2.426,0.398,3.586-1.905,3.586c-2.55,0-6.607-1.55-12.278-4.772
				c-6.714-3.815-17.247-10.786-34.211-23.216c-28.055-20.574-66.277-50.458-110.442-87.822C118.869,79.914,35.454,0,56.863,0
				c19.717,0,99.695,63.042,175.715,131.369c42.629,38.315,76.324,71.562,99.271,95.965c-3.612,0-7.223,0-10.835,0
				c-19.691-18.228-36.521-31.44-41.587-31.44c-3.064,0,1.822,6.086,12.834,16.475c9.082,8.567,20.94,18.821,33.711,29.283
				c9.226,7.55,15.315,12.243,19.305,14.938c3.595,2.428,5.97,3.586,7.271,3.586C354.576,260.176,352.578,257.156,345.841,250.55z"
				/>
			<path style="fill-rule:evenodd;clip-rule:evenodd;" d="M385.679,268.805c-4.486,0-8.962,0-13.438,0
				c-5.212-6.094-12.494-14.593-23.369-27.288c-18.23-21.28-54.642-63.77-164.173-191.553c30.578,0,61.157,0,91.735,0
				c41.017,82.375,62.013,124.547,74.839,150.298c-7.543,0-15.058,0-22.572,0c7.406,10.408,13.548,19.009,18.662,26.182
				c4.767,0,9.535,0,14.302,0c5.179,9.734,9.228,17.392,12.452,23.459c-3.35,0-6.699,0-10.049,0
				c2.449,3.451,4.626,6.498,6.552,9.194c3.434,0,6.88,0,10.326,0C382.78,262.873,384.336,266.054,385.679,268.805z"/>
			<path style="fill-rule:evenodd;clip-rule:evenodd;" d="M393.547,268.805c-1.782,0-3.554,0-5.326,0
				c-2.551-6.094-6.081-14.603-11.418-27.315c-8.927-21.262-26.803-63.743-80.48-191.525c12.387,0,24.774,0,37.232,0
				c35.046,127.783,46.734,170.268,52.559,191.525C389.598,254.207,391.884,262.711,393.547,268.805z"/>
			<path style="fill-rule:evenodd;clip-rule:evenodd;" d="M409.162,268.805c-4.142,0-8.273,0-12.395,0
				c-1.127-6.094-2.661-14.595-5.025-27.315c-3.95-21.254-11.896-63.743-35.679-191.525c12.246,0,24.562,0,36.878,0
				c4.504,107.937,6.328,151.835,7.328,175.59c0.624,14.83,1.023,24.996,1.321,32.438c3.07,0,6.154,0,9.237,0
				c-0.343,2.211-0.658,4.26-0.941,6.094C409.624,265.784,409.385,267.349,409.162,268.805z"/>
			<path style="fill-rule:evenodd;clip-rule:evenodd;" d="M416.747,268.805c-1.782,0-3.564,0-5.337,0
				c1.312-6.094,3.182-14.582,5.927-27.315c4.586-21.268,13.683-63.743,41.149-191.525c12.387,0,24.845,0,37.303,0
				c-46.133,127.783-61.435,170.261-69.124,191.525C422.059,254.227,418.947,262.711,416.747,268.805z"/>
			<path style="fill-rule:evenodd;clip-rule:evenodd;" d="M424.93,268.805c-1.661,0-3.322,0-4.982,0
				c2.732-6.094,6.582-14.579,12.312-27.315c9.566-21.265,28.608-63.743,85.969-191.525c11.608,0,23.217,0,34.825,0
				c-43.769,80.973-66.311,122.844-80.267,148.626c-9.339,17.252-16.038,29.741-21.138,39.206
				c-1.488,2.858-4.096,7.172-7.465,12.538c1.906-2.777,4.103-5.878,8.508-11.864c6.888-9.383,16.043-21.86,28.603-38.962
				c18.966-25.825,49.812-67.869,109.769-149.543c11.68,0,23.358,0,35.108,0c-111.373,127.783-148.386,170.252-166.92,191.499
				c-11.126,12.755-18.556,21.248-23.86,27.342c-1.682,0-3.353,0-5.014,0c1.07-2.589,2.309-5.558,3.754-9.006
				c1.697-4.047,3.748-8.925,6.229-14.831c0.983-2.507,3.557-7.874,7.417-15.478c-2.365,4.396-4.445,7.955-8.398,14.668
				c-3.624,6.175-6.595,11.241-9.055,15.424C428.248,263.112,426.471,266.162,424.93,268.805z"/>
			<path style="fill-rule:evenodd;clip-rule:evenodd;" d="M454.094,268.805c-1.134,0-2.269,0-3.393,0
				c1.119-0.944,2.312-1.941,3.567-2.993c-4.633,2.696-7.743,3.829-9.889,3.829c-2.294,0-2.539-1.541-0.677-4.772
				c2.193-3.805,7.87-10.786,19.582-23.27c19.973-21.329,51.144-51.842,93.486-89.602C640.696,77.155,738.913,0,761.676,0
				c17.771,0-44.758,60.229-122.648,126.084c-44.701,37.794-87.275,71.158-120.723,95.965c-3.786,0-7.571,0-11.334,0
				c18.429-15.747,28.498-26.155,24.523-26.155c-3.156,0-12.765,6.471-26.268,17.365c-10.863,8.763-22.787,19.252-34.187,29.768
				c-7.93,7.307-12.331,11.733-14.428,14.264c-1.901,2.295-2.08,3.343-0.754,3.343c1.883,0,6.203-2.319,11.842-6.552
				c-1.108,0-2.217,0-3.311,0c5.691-4.799,12.554-10.57,20.994-17.688c4.509,0,9.037,0,13.564,0
				c-12.299,8.898-21.802,15.753-29.325,21.193C463.498,262.016,458.397,265.677,454.094,268.805z"/>
			<path style="fill-rule:evenodd;clip-rule:evenodd;" d="M405.932,263.897c-0.105,1.833-0.202,3.505-0.291,5.042
				c-1.423,0-2.835,0-4.247,0c-0.038-0.647-0.077-1.294-0.117-1.996c1.096,0,2.191,0,3.287,0c0.026-0.971,0.053-1.995,0.082-3.047
				C405.07,263.897,405.495,263.897,405.932,263.897z"/>
			<path style="fill-rule:evenodd;clip-rule:evenodd;" d="M406.154,260.068c-0.057,0.97-0.109,1.887-0.161,2.777
				c-1.661,0-3.31,0-4.959,0c-0.052-0.89-0.105-1.807-0.162-2.777C402.629,260.068,404.385,260.068,406.154,260.068z"/>
			<path style="fill-rule:evenodd;clip-rule:evenodd;" d="M406.946,246.667c-0.062,1.024-0.12,1.996-0.178,2.966
				c-0.205,0.081-0.394,0.135-0.582,0.216c0.453,0.944,0.61,2.292,0.51,3.91c-0.194,3.127-1.392,4.88-3.177,4.88
				c-1.825,0-3.004-1.915-3.232-5.635c-0.201-3.317,0.59-5.663,2.174-6.121c0.024,1.456,0.048,2.858,0.071,4.18
				c-0.503,0.323-0.734,1.078-0.704,2.049c0.047,1.51,0.638,2.211,1.789,2.211c1.068,0,1.605-0.701,1.658-2.238
				c0.039-1.159-0.229-2.104-0.707-2.292c-0.014,0.62-0.026,1.24-0.037,1.833c-0.438,0-0.877,0-1.315,0
				c-0.009-1.86-0.018-3.829-0.026-5.959C404.442,246.667,405.694,246.667,406.946,246.667z"/>
			<path style="fill-rule:evenodd;clip-rule:evenodd;" d="M407.465,237.877c-0.115,2.076-0.229,4.071-0.343,5.905
				c-2.405,0-4.794,0.027-7.183,0.027c-0.1-1.861-0.218-3.829-0.345-5.905c0.878,0,1.757,0,2.654,0
				c-0.043-2.076-0.088-4.233-0.136-6.552c-0.985,0-1.949,0-2.913,0c-0.162-2.696-0.331-5.527-0.522-8.736
				c3.21,0,6.421-0.027,9.655-0.027c-0.183,3.208-0.343,6.04-0.497,8.736c-1.128,0-2.256,0-3.364,0
				c-0.026,2.319-0.05,4.476-0.073,6.552C405.408,237.877,406.437,237.877,407.465,237.877z"/>
			<path style="fill-rule:evenodd;clip-rule:evenodd;" d="M410.015,193.17c-0.329,5.771-0.614,10.732-0.884,15.45
				c-2.788,0-5.549,0-8.31,0c0.108,3.775,0.21,7.334,0.304,10.57c-0.883,0-1.767,0-2.651,0c-0.65-10.92-1.5-25.184-2.63-44.193
				c1.337,0,2.673,0,4.01,0c0.193,6.714,0.365,12.727,0.521,18.173C403.578,193.17,406.78,193.17,410.015,193.17z"/>
			<path style="fill-rule:evenodd;clip-rule:evenodd;" d="M406.387,170.144c0.185-8.925,0.394-18.983,0.644-31.117
				c1.533-1.941,2.271-7.388,2.688-20.088c0.403-12.269-0.033-19.873-1.119-19.873c-0.858,0-1.672,7.604-2.423,21.895
				c-0.143,3.02-0.276,5.582-0.342,6.795c-0.935,18.228-1.549,26.883-2.015,30.523c-0.902,7.469-2.1,10.408-3.691,10.408
				c-3.182,0-6.01-14.318-8.011-46.163c-3.048-48.562-2.199-92.136,4.196-98.283c0.875,33.92,1.477,57.083,2.029,78.411
				c-1.356,1.456-1.784,8.143-1.324,20.87c0.335,9.249,0.944,13.131,1.833,13.131c0.654,0,1.101-5.419,1.299-18.254
				c0.033-1.025,0.015-2.022,0.005-2.562c0.016-2.022,0.115-5.582,0.212-9.626c0.366-22.973,0.941-39.987,1.543-48.805
				c1.648-29.067,4.216-41.551,7.585-41.551c7.542,0,8.665,48.966,5.267,105.105C412.778,153.722,409.863,168.687,406.387,170.144z"
				/>
			<path style="fill:none;stroke:#FFFFFF;stroke-width:0.216;stroke-miterlimit:2.6131;" d="M405.932,263.897
				c-0.105,1.833-0.202,3.505-0.291,5.042c-1.423,0-2.835,0-4.247,0c-0.038-0.647-0.077-1.294-0.117-1.996c1.096,0,2.191,0,3.287,0
				c0.026-0.971,0.053-1.995,0.082-3.047C405.07,263.897,405.495,263.897,405.932,263.897z M406.154,260.068
				c-0.057,0.97-0.109,1.887-0.161,2.777c-1.661,0-3.31,0-4.959,0c-0.052-0.89-0.105-1.807-0.162-2.777
				C402.629,260.068,404.385,260.068,406.154,260.068z M406.946,246.667c-0.062,1.024-0.12,1.996-0.178,2.966
				c-0.205,0.081-0.394,0.135-0.582,0.216c0.453,0.944,0.61,2.292,0.51,3.91c-0.194,3.127-1.392,4.88-3.177,4.88
				c-1.825,0-3.004-1.915-3.232-5.635c-0.201-3.317,0.59-5.663,2.174-6.121c0.024,1.456,0.048,2.858,0.071,4.18
				c-0.503,0.323-0.734,1.078-0.704,2.049c0.047,1.51,0.638,2.211,1.789,2.211c1.068,0,1.605-0.701,1.658-2.238
				c0.039-1.159-0.229-2.104-0.707-2.292c-0.014,0.62-0.026,1.24-0.037,1.833c-0.438,0-0.877,0-1.315,0
				c-0.009-1.86-0.018-3.829-0.026-5.959C404.442,246.667,405.694,246.667,406.946,246.667z M407.465,237.877
				c-0.115,2.076-0.229,4.071-0.343,5.905c-2.405,0-4.794,0.027-7.183,0.027c-0.1-1.861-0.218-3.829-0.345-5.905
				c0.878,0,1.757,0,2.654,0c-0.043-2.076-0.088-4.233-0.136-6.552c-0.985,0-1.949,0-2.913,0c-0.162-2.696-0.331-5.527-0.522-8.736
				c3.21,0,6.421-0.027,9.655-0.027c-0.183,3.208-0.343,6.04-0.497,8.736c-1.128,0-2.256,0-3.364,0
				c-0.026,2.319-0.05,4.476-0.073,6.552C405.408,237.877,406.437,237.877,407.465,237.877z M410.015,193.17
				c-0.329,5.771-0.614,10.732-0.884,15.45c-2.788,0-5.549,0-8.31,0c0.108,3.775,0.21,7.334,0.304,10.57c-0.883,0-1.767,0-2.651,0
				c-0.65-10.92-1.5-25.184-2.63-44.193c1.337,0,2.673,0,4.01,0c0.193,6.714,0.365,12.727,0.521,18.173
				C403.578,193.17,406.78,193.17,410.015,193.17z M406.387,170.144c0.185-8.925,0.394-18.983,0.644-31.117
				c1.533-1.941,2.271-7.388,2.688-20.088c0.403-12.269-0.033-19.873-1.119-19.873c-0.858,0-1.672,7.604-2.423,21.895
				c-0.143,3.02-0.276,5.582-0.342,6.795c-0.935,18.228-1.549,26.883-2.015,30.523c-0.902,7.469-2.1,10.408-3.691,10.408
				c-3.182,0-6.01-14.318-8.011-46.163c-3.048-48.562-2.199-92.136,4.196-98.283c0.875,33.92,1.477,57.083,2.029,78.411
				c-1.356,1.456-1.784,8.143-1.324,20.87c0.335,9.249,0.944,13.131,1.833,13.131c0.654,0,1.101-5.419,1.299-18.254
				c0.033-1.025,0.015-2.022,0.005-2.562c0.016-2.022,0.115-5.582,0.212-9.626c0.366-22.973,0.941-39.987,1.543-48.805
				c1.648-29.067,4.216-41.551,7.585-41.551c7.542,0,8.665,48.966,5.267,105.105C412.778,153.722,409.863,168.687,406.387,170.144z"
				/>
		</g>
	</g>
</svg>
