<?xml version="1.0" encoding="iso-8859-1"?>
<!-- Generator: Adobe Illustrator 10.0.3, SVG Export Plug-In . SVG Version: 3.0.0 Build 77)  -->
<!DOCTYPE svg PUBLIC "-//W3C//DTD SVG 1.0//EN"    "http://www.w3.org/TR/2001/REC-SVG-20010904/DTD/svg10.dtd" [
	<!ENTITY ns_flows "http://ns.adobe.com/Flows/1.0/">
	<!ENTITY ns_svg "http://www.w3.org/2000/svg">
	<!ENTITY ns_xlink "http://www.w3.org/1999/xlink">
]>
<svg  xmlns="&ns_svg;" xmlns:xlink="&ns_xlink;" xmlns:a="http://ns.adobe.com/AdobeSVGViewerExtensions/3.0/"
	 width="1001.941" height="280.797" viewBox="0 0 1001.941 280.797"
	 style="overflow:visible;enable-background:new 0 0 1001.941 280.797" xml:space="preserve">
	<g id="Layer_1">
		<g>
			<path style="fill-rule:evenodd;clip-rule:evenodd;" d="M343.082,81.262c-0.299-0.067-0.598-0.131-0.848-0.191
				c0.086-0.197,0.171-0.394,0.255-0.589c0.085-0.195,0.17-0.391,0.254-0.585c0.319-0.131,0.636-0.263,1.053-0.398
				c-0.057,0.14-0.114,0.28-0.17,0.42c-0.23,0.053-0.461,0.104-0.642,0.156c-0.025,0.061-0.051,0.122-0.077,0.183
				c0.171-0.03,0.342-0.063,0.513-0.092c-0.053,0.13-0.107,0.261-0.16,0.393c-0.163,0.007-0.326,0.016-0.49,0.023
				c-0.031,0.073-0.062,0.146-0.092,0.218c0.16,0.008,0.37,0.018,0.579,0.028C343.2,80.973,343.141,81.117,343.082,81.262z"/>
			<path style="fill-rule:evenodd;clip-rule:evenodd;" d="M343.982,80.346c-0.066,0.171-0.134,0.343-0.2,0.514
				c-0.067,0.172-0.134,0.345-0.202,0.518c-0.1-0.026-0.199-0.052-0.349-0.077c0.127-0.317,0.254-0.635,0.379-0.949
				c0.125-0.313,0.251-0.627,0.427-0.939c0.181-0.068,0.414-0.136,0.595-0.206c-0.065,0.169-0.057,0.347-0.099,0.52
				c-0.044,0.186-0.087,0.363-0.157,0.55c-0.011,0.028-0.053,0.14-0.126,0.338c0.11-0.158,0.159-0.282,0.181-0.34
				c0.179-0.202,0.259-0.407,0.388-0.615c0.131-0.21,0.263-0.425,0.396-0.642c0.18-0.072,0.461-0.146,0.691-0.22
				c-0.135,0.231-0.221,0.465-0.306,0.698c-0.085,0.233-0.222,0.469-0.307,0.705c-0.085,0.235-0.192,0.464-0.308,0.711
				c-0.107,0.23-0.173,0.478-0.26,0.719c-0.149-0.032-0.299-0.063-0.398-0.093c0.08-0.215,0.16-0.429,0.239-0.642
				c0.079-0.213,0.208-0.425,0.288-0.637c0.058-0.156,0.11-0.297,0.168-0.453c-0.101,0.135-0.158,0.286-0.218,0.443
				c-0.003,0.007-0.006,0.015-0.008,0.022c-0.18,0.209-0.259,0.416-0.387,0.619c-0.127,0.203-0.205,0.401-0.331,0.599
				c-0.1-0.022-0.2-0.044-0.299-0.065c0.07-0.188,0.113-0.365,0.157-0.552c0.041-0.174,0.083-0.352,0.098-0.523
				c0.034-0.09,0.073-0.191,0.15-0.392C344.115,80.134,344.013,80.268,343.982,80.346z"/>
			<path style="fill-rule:evenodd;clip-rule:evenodd;" d="M346.009,80.396c-0.071,0.206-0.142,0.412-0.214,0.617
				c0.103,0.006,0.206,0.014,0.258,0.021c0.205,0.014,0.29-0.08,0.371-0.322c0.128-0.23,0.108-0.327-0.102-0.322
				C346.218,80.393,346.113,80.394,346.009,80.396z M346.515,79.23c-0.066,0.188-0.132,0.377-0.248,0.566
				c0.106-0.01,0.162-0.02,0.268-0.03c0.212-0.021,0.295-0.113,0.369-0.328c0.131-0.234,0.103-0.3-0.172-0.243
				C346.625,79.206,346.57,79.218,346.515,79.23z M345.723,81.85c-0.249-0.056-0.498-0.107-0.748-0.159
				c0.091-0.255,0.16-0.518,0.271-0.763c0.118-0.26,0.208-0.511,0.318-0.754c0.119-0.258,0.207-0.507,0.317-0.747
				c0.118-0.257,0.229-0.494,0.317-0.739c0.281-0.08,0.563-0.162,0.844-0.245c0.391-0.108,0.548-0.127,0.635-0.086
				c0.122,0.085,0.13,0.362-0.015,0.8c-0.167,0.348-0.408,0.614-0.621,0.788c0.163,0.134,0.124,0.414-0.032,0.891
				c-0.126,0.234-0.245,0.44-0.351,0.604c-0.106,0.165-0.251,0.287-0.33,0.358C346.137,81.901,346.022,81.924,345.723,81.85z"/>
			<path style="fill-rule:evenodd;clip-rule:evenodd;" d="M348.947,79.125c-0.134,0.265-0.318,0.528-0.45,0.788
				c-0.133,0.26-0.315,0.52-0.447,0.776c0.155,0.004,0.31,0.008,0.515,0.013c0.031-0.271,0.136-0.533,0.193-0.804
				C348.812,79.642,348.918,79.38,348.947,79.125z M347.218,82.2c-0.199-0.049-0.398-0.097-0.598-0.142
				c0.161-0.332,0.352-0.676,0.533-1.004c0.192-0.348,0.425-0.681,0.638-1.029c0.216-0.352,0.433-0.708,0.649-1.067
				c0.218-0.361,0.487-0.726,0.656-1.094c0.325-0.075,0.599-0.15,0.873-0.228c-0.065,0.364-0.181,0.736-0.247,1.117
				c-0.067,0.386-0.137,0.781-0.256,1.186c-0.123,0.415-0.221,0.835-0.321,1.274c-0.1,0.436-0.152,0.893-0.232,1.353
				c-0.249-0.059-0.548-0.117-0.797-0.172c0.066-0.226,0.082-0.451,0.147-0.675c-0.252-0.034-0.505-0.069-0.708-0.102
				C347.393,81.812,347.331,82.006,347.218,82.2z"/>
			<path style="fill-rule:evenodd;clip-rule:evenodd;" d="M349.91,82.802c-0.249-0.062-0.499-0.124-0.797-0.185
				c0.182-0.46,0.362-0.918,0.543-1.371c0.179-0.451,0.36-0.898,0.54-1.341c0.179-0.441,0.337-0.888,0.538-1.313
				c0.208-0.44,0.408-0.859,0.586-1.286c0.323-0.08,0.697-0.16,1.02-0.243c-0.066,0.393-0.007,0.799-0.051,1.217
				c-0.045,0.433-0.093,0.876-0.118,1.336c-0.04,0.147-0.07,0.447-0.187,0.885c0.062-0.23,0.179-0.478,0.333-0.857
				c0.234-0.487,0.396-0.977,0.601-1.448c0.211-0.482,0.417-0.945,0.65-1.414c0.373-0.089,0.797-0.183,1.221-0.277
				c-0.247,0.535-0.519,1.067-0.743,1.62c-0.22,0.541-0.446,1.103-0.694,1.663c-0.25,0.564-0.448,1.134-0.696,1.709
				c-0.25,0.58-0.5,1.167-0.701,1.756c-0.349-0.077-0.697-0.154-0.997-0.228c0.033-0.528,0.039-1.045,0.092-1.54
				c0.052-0.487,0.101-0.952,0.124-1.405c-0.007-0.158,0.075-0.452,0.177-0.812c-0.053,0.188-0.158,0.379-0.322,0.779
				c-0.177,0.451-0.376,0.896-0.582,1.362C350.245,81.862,350.089,82.335,349.91,82.802z"/>
			<path style="fill-rule:evenodd;clip-rule:evenodd;" d="M353.947,83.701c-0.498-0.105-0.897-0.197-1.296-0.29
				c0.205-0.621,0.458-1.239,0.712-1.849c0.251-0.603,0.505-1.204,0.759-1.795c0.252-0.587,0.504-1.17,0.757-1.746
				c0.25-0.571,0.503-1.138,0.754-1.699c0.475-0.103,0.951-0.21,1.529-0.32c-0.206,0.402-0.382,0.797-0.565,1.212
				c-0.177,0.402-0.36,0.821-0.515,1.236c0.414-0.44,0.831-0.888,1.246-1.346c0.418-0.461,0.887-0.936,1.358-1.417
				c0.733-0.145,1.466-0.295,2.25-0.452c-0.643,0.597-1.218,1.197-1.771,1.748c-0.572,0.569-1.122,1.099-1.654,1.629
				c0,0.426-0.026,0.86-0.004,1.308c0.023,0.456-0.057,0.924-0.062,1.404c-0.006,0.492,0.011,0.999,0.026,1.521
				c0.015,0.534-0.021,1.083,0.015,1.643c-0.748-0.166-1.446-0.311-2.093-0.455c0.036-0.634-0.005-1.254,0.051-1.846
				c0.055-0.58,0.108-1.137,0.135-1.682c-0.206,0.215-0.41,0.425-0.615,0.635c-0.202,0.418-0.333,0.85-0.507,1.267
				C354.275,82.845,354.101,83.27,353.947,83.701z"/>
			<path style="fill-rule:evenodd;clip-rule:evenodd;" d="M361.611,79.816c-0.329,0.834-0.661,1.679-0.989,2.533
				c-0.333,0.866-0.661,1.744-0.993,2.627c-0.648-0.149-1.246-0.285-1.844-0.412c0.28-0.838,0.608-1.672,0.938-2.492
				c0.326-0.811,0.655-1.614,0.984-2.405c0.325-0.783,0.653-1.559,0.98-2.322c0.325-0.757,0.652-1.505,0.978-2.246
				c0.836-0.174,1.876-0.363,2.917-0.557c-0.178,0.793-0.361,1.606-0.541,2.438c-0.184,0.853-0.368,1.732-0.555,2.632
				c0.023,0.132-0.138,0.674-0.333,1.64c0.407-0.754,0.729-1.335,0.886-1.609c0.598-0.939,1.198-1.884,1.798-2.827
				s1.205-1.894,1.859-2.843c1.245-0.233,2.695-0.489,4.196-0.755c-0.458,1.031-0.892,2.064-1.327,3.129
				c-0.435,1.063-0.851,2.164-1.281,3.256c-0.442,1.124-0.899,2.243-1.337,3.4c-0.437,1.157-0.876,2.35-1.292,3.546
				c-0.947-0.213-1.894-0.427-2.841-0.64c0.351-1.065,0.75-2.124,1.151-3.164c0.397-1.028,0.798-2.042,1.197-3.043
				c0.296-0.731,0.578-1.385,0.875-2.105c-0.327,0.615-0.769,1.306-1.167,2.035c-0.007,0.037-0.014,0.072-0.021,0.108
				c-0.6,0.979-1.168,1.95-1.745,2.939c-0.566,0.971-1.092,1.963-1.637,2.94c-0.598-0.137-1.196-0.273-1.744-0.396
				c0.185-0.947,0.342-1.88,0.548-2.784c0.203-0.888,0.408-1.748,0.635-2.591c0.043-0.44,0.2-0.937,0.411-1.911
				C362.034,78.792,361.792,79.443,361.611,79.816z"/>
			<path style="fill-rule:evenodd;clip-rule:evenodd;" d="M381.811,89.959c-5.383-1.213-9.57-2.152-13.059-2.934
				c0.472-1.279,0.941-2.547,1.414-3.792c0.467-1.23,0.937-2.44,1.409-3.631c0.465-1.174,0.934-2.334,1.403-3.476
				c0.464-1.128,0.933-2.239,1.398-3.336c3.875-0.675,8.52-1.458,14.446-2.438c-0.595,1.433-1.19,2.884-1.786,4.355
				c-3.48,0.311-6.654,0.593-9.267,0.837c-0.271,0.668-0.542,1.34-0.863,2.016c2.193-0.1,4.692-0.208,7.545-0.331
				c-0.534,1.43-1.068,2.877-1.655,4.348c-2.782-0.128-5.159-0.235-7.335-0.332c-0.295,0.845-0.64,1.701-0.986,2.564
				c2.667,0.289,5.786,0.634,9.156,1.01C383.025,86.51,382.418,88.224,381.811,89.959z"/>
			<path style="fill-rule:evenodd;clip-rule:evenodd;" d="M393.972,92.693c-3.19-0.725-5.931-1.336-8.623-1.94
				c0.626-1.918,1.32-3.809,1.976-5.676c0.641-1.826,1.292-3.634,1.966-5.397c0.667-1.744,1.286-3.462,1.958-5.145
				c0.664-1.658,1.285-3.292,1.951-4.903c3.038-0.49,6.076-0.991,9.782-1.577c1.281,1.473,2.587,3.046,3.764,4.792
				c1.236,1.834,2.341,3.853,3.471,5.998c0.616,0.705,1.137,2.156,1.77,4.333c-0.006-1.139,0.302-2.336,0.946-4.159
				c0.815-2.32,1.646-4.591,2.491-6.835c0.829-2.202,1.671-4.382,2.48-6.523c6.583-1.043,13.218-2.093,19.904-3.157
				c-1.027,2.818-2.062,5.675-3.084,8.584c-1.038,2.955-2.071,5.967-3.1,9.038c-1.043,3.115-2.083,6.297-3.117,9.543
				c-1.049,3.295-2.088,6.666-3.085,10.076c-6.13-1.366-12.112-2.717-18.143-4.067c-1.783-3.011-2.723-5.741-3.784-8.249
				c-1.013-2.395-2.195-4.61-3.334-6.693c-0.46-0.705-0.787-1.991-1.022-3.529c-0.014,0.803-0.333,1.612-0.931,3.329
				c-0.729,1.945-1.435,3.916-2.139,5.937C395.362,88.503,394.655,90.592,393.972,92.693z"/>
			<path style="fill-rule:evenodd;clip-rule:evenodd;" d="M572.563,132.782c-50.144-11.263-74.417-16.708-98.642-22.154
				c0.998-3.818,2.015-7.626,3.041-11.37c1.012-3.695,2.053-7.35,3.073-10.935c1.005-3.532,2.042-7.011,3.052-10.449
				c1.002-3.408,2.06-6.75,3.036-10.054c-18.066,1.25-28.479,2.013-38.942,2.761c0.615-1.722,1.156-3.435,1.742-5.104
				c0.59-1.683,1.176-3.334,1.79-4.99C492.766,53.919,580.098,40.347,840.684,0c-0.658,7.43-1.35,14.861-2.039,22.327
				c-0.701,7.563-1.457,15.181-2.145,22.913c-83.689,5.327-166.359,10.574-249.027,15.812c-1.206,5.524-2.449,11.109-3.685,16.8
				c-1.253,5.773-2.454,11.595-3.676,17.508c-1.245,6.023-2.537,12.134-3.776,18.33C575.074,119.985,573.824,126.37,572.563,132.782
				z"/>
			<path style="fill-rule:evenodd;clip-rule:evenodd;" d="M277.712,104.382c-19.916,9.034-58.313,26.472-246.909,112.049
				c-3.399-23.996-6.5-45.373-9.539-64.545c-2.737-17.27-5.39-32.981-7.973-47.301c-2.347-13.008-4.707-24.993-7.01-36.054
				C4.162,58.349,2.002,48.875,0,40.13C159.681,58.386,209.55,64.1,238.776,67.469c2.974,1.875,5.992,3.879,8.977,6.006
				c-13.218-0.741-36.629-1.885-64.698-3.24c2.416,2.199,4.836,4.493,7.262,6.876c22.866,0.016,45.73-0.013,56.348,0.122
				c3.077,2.648,6.162,5.502,9.257,8.594c-9.734,0.933-31.195,3.393-52.657,5.802c2.922,3.762,5.895,7.771,8.839,12.004
				c25.303-5.493,45.216-9.781,56.372-12.045C271.531,95.425,274.597,99.664,277.712,104.382z"/>
			<path style="fill-rule:evenodd;clip-rule:evenodd;" d="M281.779,81.006c2.228,2.049,4.516,4.218,6.702,6.675
				c2.298,2.583,4.497,5.531,6.791,8.739c-3.203,1.453-6.406,2.905-9.608,4.358c-2.859-4.16-5.597-7.961-8.476-11.274
				c-2.72-3.129-5.534-5.925-8.397-8.466c-2.725-2.419-5.497-4.629-8.293-6.63c-2.751-1.968-5.536-3.707-8.277-5.382
				c6.843,0.796,13.646,1.589,18.917,2.208c2.938,1.383,5.855,2.789,8.662,4.302c2.802,1.51,5.535,3.151,8.284,4.822
				c0.373,0.251,1.787,1.284,4.471,3.169c-1.293-1.546-2.23-2.664-2.632-3.167c-1.339-1.623-2.491-3.119-3.916-4.43
				c-1.367-1.259-2.665-2.359-3.933-3.403c3.202,0.384,6.287,0.756,8.685,1.051c1.52,0.936,3.093,1.902,4.602,2.963
				c1.539,1.082,3.105,2.258,4.622,3.528c1.584,1.326,3.129,2.769,4.645,4.354c1.603,1.676,3.125,3.562,4.709,5.612
				c-1.03,0.47-2.282,1.029-3.681,1.667c-1.752-2.349-3.425-4.522-5.209-6.426c-1.702-1.815-3.48-3.43-5.175-4.954
				c-1.276-1.059-2.442-1.968-3.714-2.927c0.881,0.81,1.797,1.769,2.809,2.839c0.055,0.057,0.108,0.111,0.163,0.168
				c1.394,1.575,2.829,3.285,4.239,5.219c1.524,2.09,2.989,4.482,4.568,7.135c-1.362,0.624-2.945,1.346-4.528,2.058
				c-2.565-2.724-5.085-5.295-7.731-7.582c-2.595-2.241-5.353-4.254-8.065-6.205c-1.504-0.989-3.082-2.092-6.689-4.195
				C278.87,78.675,280.765,80.131,281.779,81.006z"/>
			<path style="fill-rule:evenodd;clip-rule:evenodd;" d="M307.456,81.005c0.948,0.859,1.898,1.77,2.849,2.729
				c0.413-0.083,0.827-0.15,1.203-0.221c0.752-0.137,0.657-0.581-0.27-1.49c-0.874-0.82-1.612-1.141-2.45-1.092
				C308.369,80.955,307.95,80.976,307.456,81.005z M302.051,76.775c0.884,0.616,1.771,1.259,2.657,1.926
				c0.46,0.01,0.883,0.024,1.267,0.034c0.884,0.024,0.848-0.23-0.007-0.866c-0.921-0.67-1.442-0.895-2.913-1.014
				C302.784,76.83,302.437,76.803,302.051,76.775z M314.784,87.561c-1.031,0.479-2.246,1.019-3.46,1.573
				c-1.458-1.871-2.876-3.611-4.333-5.128c-1.412-1.471-2.85-2.777-4.309-4c-1.394-1.168-2.842-2.246-4.289-3.258
				c-1.392-0.974-2.836-1.881-4.233-2.75c1.979,0.252,3.957,0.497,5.707,0.724c1.987,0.255,2.794,0.399,3.705,0.652
				c1.385,0.444,2.949,1.191,4.385,2.205c1.176,0.85,1.705,1.495,1.667,1.928c1.292,0.422,2.542,1.205,4.052,2.614
				c0.731,0.742,1.325,1.445,1.75,2.084c0.44,0.662,0.675,1.258,0.676,1.72C316.232,86.631,316.036,87.005,314.784,87.561z"/>
			<path style="fill-rule:evenodd;clip-rule:evenodd;" d="M312.708,78.273c0.513,0.457,1.026,0.937,1.543,1.43
				c0.551,0.525,1.072,1.071,1.629,1.646c0.305-0.027,0.612-0.053,0.918-0.08c-0.668-0.534-1.328-1.068-2.005-1.559
				C314.097,79.206,313.417,78.741,312.708,78.273z M319.201,85.557c-0.442,0.207-0.884,0.411-1.436,0.648
				c-0.883-1.318-1.655-2.542-2.527-3.597c-0.84-1.016-1.691-1.916-2.497-2.746c-0.772-0.795-1.524-1.52-2.275-2.191
				c-0.731-0.654-1.44-1.249-2.139-1.82c0.791,0.11,1.506,0.215,2.222,0.319c1.005,0.576,2.024,1.143,3.012,1.769
				c0.941,0.597,1.897,1.251,2.815,1.918c0.927,0.673,1.83,1.357,2.725,2.124c0.87,0.745,1.763,1.587,2.604,2.446
				c-0.331,0.148-0.663,0.295-0.994,0.453c-0.531-0.518-1.026-1.021-1.523-1.507c-0.412,0.117-0.861,0.231-1.311,0.361
				C318.305,84.313,318.771,84.92,319.201,85.557z"/>
			<path style="fill-rule:evenodd;clip-rule:evenodd;" d="M322.772,83.938c-0.258,0.122-0.516,0.243-0.773,0.363
				c-0.761-0.863-1.485-1.67-2.249-2.422c-0.721-0.71-1.446-1.38-2.205-2.019c-0.72-0.607-1.444-1.187-2.201-1.748
				c-0.72-0.534-1.476-1.055-2.194-1.556c0.487,0.08,0.975,0.16,1.461,0.238c0.851,0.467,1.669,0.929,2.472,1.415
				c0.774,0.469,1.535,0.965,2.298,1.457c0.249,0.156,0.666,0.468,1.242,0.929c-0.255-0.243-0.56-0.5-1.021-0.886
				c-0.605-0.483-1.164-0.962-1.741-1.398c-0.595-0.45-1.171-0.862-1.737-1.274c0.375,0.072,0.79,0.142,1.204,0.211
				c0.537,0.411,1.115,0.831,1.687,1.269c0.579,0.444,1.166,0.898,1.728,1.394c0.552,0.486,1.123,1.018,1.693,1.572
				c0.584,0.567,1.156,1.181,1.734,1.823c-0.221,0.094-0.442,0.187-0.626,0.284c-0.713-0.615-1.427-1.216-2.151-1.792
				c-0.718-0.571-1.485-1.119-2.251-1.661c-0.262-0.19-0.736-0.544-1.333-0.97c0.286,0.222,0.57,0.447,1.114,0.929
				c0.653,0.561,1.286,1.13,1.922,1.766C321.481,82.495,322.118,83.202,322.772,83.938z"/>
			<path style="fill-rule:evenodd;clip-rule:evenodd;" d="M325.091,82.886c-0.184,0.079-0.368,0.168-0.552,0.256
				c-0.57-0.605-1.089-1.196-1.638-1.724c-0.555-0.535-1.091-1.031-1.635-1.494c-0.557-0.474-1.091-0.918-1.633-1.334
				c-0.559-0.43-1.099-0.823-1.63-1.219c0.379,0.067,0.72,0.132,1.063,0.199c0.308,0.245,0.661,0.482,0.999,0.746
				c0.315,0.245,0.653,0.517,1,0.782c-0.22-0.25-0.387-0.499-0.577-0.718c-0.201-0.232-0.348-0.435-0.518-0.637
				c0.352,0.072,0.702,0.143,1.018,0.214c0.174,0.204,0.304,0.426,0.461,0.645c0.175,0.244,0.376,0.485,0.606,0.745
				c0.71,0.5,1.45,1.011,2.116,1.51c0.688,0.516,1.344,1.028,1.986,1.554c-0.147,0.076-0.368,0.16-0.552,0.244
				c-0.453-0.377-0.863-0.761-1.331-1.116c-0.49-0.372-0.961-0.72-1.464-1.074c0.13,0.148,0.225,0.302,0.356,0.458
				c0.302,0.303,0.635,0.623,0.944,0.937C324.444,82.196,324.753,82.534,325.091,82.886z"/>
			<path style="fill-rule:evenodd;clip-rule:evenodd;" d="M324.361,80.1c0.398,0.326,0.762,0.658,1.12,1.005
				c0.364,0.352,0.723,0.724,1.119,1.105c-0.11,0.052-0.257,0.107-0.368,0.165c-0.417-0.432-0.832-0.851-1.254-1.247
				c-0.415-0.389-0.843-0.753-1.254-1.122c-0.385-0.345-0.795-0.697-1.214-1.03c-0.415-0.329-0.835-0.647-1.252-0.962
				c0.355,0.072,0.674,0.144,0.995,0.214c0.412,0.299,0.822,0.597,1.229,0.9c0.405,0.302,0.847,0.61,1.25,0.92
				c0.036,0.046,0.257,0.229,0.625,0.554c-0.233-0.255-0.458-0.447-0.528-0.536c-0.315-0.299-0.633-0.579-0.938-0.866
				c-0.279-0.264-0.579-0.534-0.846-0.79c0.284,0.067,0.532,0.135,0.78,0.201c0.299,0.241,0.593,0.495,0.897,0.735
				c0.33,0.259,0.635,0.506,0.933,0.768c0.3,0.264,0.6,0.535,0.896,0.813c0.301,0.282,0.598,0.576,0.933,0.874
				c-0.074,0.043-0.184,0.086-0.294,0.13c-0.343-0.324-0.62-0.633-0.958-0.947c-0.313-0.291-0.651-0.59-0.958-0.874
				c-0.247-0.208-0.477-0.391-0.685-0.592c0.143,0.168,0.34,0.36,0.584,0.567c0.009,0.011,0.017,0.021,0.026,0.032
				c0.303,0.286,0.592,0.561,0.914,0.89c0.294,0.3,0.582,0.655,0.929,1.002c-0.074,0.037-0.184,0.073-0.257,0.112
				c-0.39-0.35-0.781-0.696-1.177-1.031c-0.394-0.333-0.756-0.657-1.155-0.978c-0.208-0.169-0.472-0.359-0.963-0.735
				C323.902,79.706,324.211,79.955,324.361,80.1z"/>
			<path style="fill-rule:evenodd;clip-rule:evenodd;" d="M328.331,81.416c-0.184,0.095-0.442,0.199-0.663,0.309
				c-0.29-0.279-0.579-0.555-0.872-0.82c-0.289-0.262-0.589-0.509-0.873-0.768c-0.261-0.239-0.543-0.491-0.835-0.729
				c-0.29-0.236-0.582-0.469-0.874-0.698c0.504,0.132,0.974,0.261,1.449,0.391c0.212,0.175,0.424,0.352,0.636,0.53
				c-0.25-0.05-0.498-0.1-0.745-0.149c0.143,0.114,0.287,0.228,0.392,0.342c0.191,0.027,0.383,0.056,0.576,0.085
				c0.208,0.18,0.417,0.363,0.625,0.547c-0.139-0.003-0.314-0.005-0.49-0.007c0.163,0.143,0.326,0.288,0.49,0.435
				c0.206-0.022,0.374-0.041,0.506-0.06C327.906,81.018,328.119,81.216,328.331,81.416z"/>
			<path style="fill-rule:evenodd;clip-rule:evenodd;" d="M328.663,81.269c-0.074,0.032-0.147,0.065-0.221,0.097
				c-0.422-0.385-0.844-0.764-1.27-1.128c-0.421-0.361-0.848-0.712-1.233-1.058c0.127,0.047,0.293,0.094,0.459,0.141
				c0.248,0.164,0.492,0.325,0.732,0.479c0.235,0.151,0.393,0.297,0.62,0.439c0.086,0.044,0.213,0.129,0.34,0.25
				c-0.065-0.062-0.134-0.129-0.278-0.233c-0.137-0.132-0.304-0.273-0.448-0.395c-0.167-0.14-0.312-0.26-0.487-0.39
				c0.169,0.046,0.338,0.091,0.47,0.136c0.3,0.242,0.593,0.494,0.862,0.729c0.292,0.256,0.599,0.498,0.896,0.749
				c-0.073,0.029-0.147,0.058-0.221,0.086c-0.209-0.125-0.38-0.263-0.567-0.39c-0.217-0.147-0.413-0.285-0.644-0.434
				c-0.094-0.054-0.236-0.156-0.402-0.282c0.104,0.065,0.169,0.13,0.341,0.266c0.151,0.153,0.348,0.297,0.527,0.462
				C328.298,80.941,328.476,81.11,328.663,81.269z"/>
			<path style="fill-rule:evenodd;clip-rule:evenodd;" d="M329.472,80.903c-0.074,0.026-0.11,0.052-0.184,0.079
				c-0.2-0.149-0.365-0.299-0.53-0.447c-0.165-0.148-0.367-0.296-0.532-0.443c-0.079-0.025-0.193-0.049-0.308-0.074
				c-0.065-0.061-0.138-0.111-0.234-0.18c-0.072-0.051-0.131-0.12-0.198-0.18c0.395,0.127,0.757,0.251,1.161,0.371
				c0.042,0.036,0.085,0.071,0.127,0.107c0.042,0.035,0.084,0.07,0.127,0.106c-0.117-0.023-0.232-0.045-0.312-0.069
				c0.141,0.122,0.282,0.244,0.423,0.366C329.155,80.66,329.295,80.782,329.472,80.903z"/>
			<path style="fill-rule:evenodd;clip-rule:evenodd;" d="M465.177,122.474c16.78,0.179,33.425,0.38,49.799,0.559
				c32.235,7.805,254.117,61.494,486.965,117.887c-63.609-0.088-128.238-0.145-193.373-0.223
				c-66.053-0.078-132.92-0.154-200.295-0.242c-127.22-76.461-193.881-116.182-212.133-126.413
				c6.697-3.423,11.872-6.311,19.098-7.631c0.458-0.106,2.758-0.34,6.102-0.936c-5.497-0.454-9.827-0.864-11.914-1.058
				c-14.129-1.596-27.185-3.213-39.095-4.787c-4.266-2.359-8.18-4.504-10.992-6.07c6.052,0.073,12.048,0.125,17.999,0.199
				c5.878,0.073,11.711,0.147,17.48,0.221c4.278,1.029,11.144,2.702,17.946,4.353c-7.377-0.116-14.825-0.232-22.344-0.327
				c-2.775-0.025-5.291-0.049-8.09-0.095c2.787,0.174,6.213,0.456,9.847,0.76c0.134,0,0.268,0,0.414,0
				c10.054,0.802,22.368,2.076,36.044,3.5c9.839,2.38,19.664,4.76,32.911,7.934c0.993,3.187-0.654,6.331-4.96,9.454
				c-1.231,0.942-4.109,1.604-9.846,3.122C455.218,122.577,461.361,122.429,465.177,122.474z"/>
			<path style="fill-rule:evenodd;clip-rule:evenodd;" d="M365.487,89.813c4.855,0.075,5.887-0.22,3.347-0.928
				c-2.332-0.644-5.015-0.906-9.017-0.938c-4.123-0.054-5.407,0.156-3.918,0.778C357.521,89.412,360.492,89.76,365.487,89.813z
				 M372.881,92.258c-10.56-0.125-19.753-1.703-23.033-3.59c-2.361-1.352,0.345-1.94,6.507-1.879
				c6.006,0.083,12.415,0.759,18.28,2.153C382.795,90.894,383.13,92.383,372.881,92.258z"/>
			<path style="fill-rule:evenodd;clip-rule:evenodd;" d="M358.629,85.231c0.924,0.215,1.845,0.429,2.864,0.687
				c-1.971-0.007-3.947-0.036-5.936-0.064c-2-0.028-4.014-0.057-6.031-0.063c0.575,0.236,1.152,0.472,1.803,0.75
				c-1.597-0.026-3.203-0.053-4.809-0.058c-1.37-0.771-2.486-1.394-3.414-1.887c1.193,0.005,2.387,0.032,3.57,0.037
				c0.396,0.15,0.789,0.322,1.192,0.472c1.813,0.028,3.624,0.046,5.419,0.064C355.076,85.185,356.856,85.224,358.629,85.231z"/>
			<path style="fill-rule:evenodd;clip-rule:evenodd;" d="M348.261,84.109c2.274,0.032,3.017-0.027,2.409-0.199
				c-0.535-0.15-1.712-0.241-3.782-0.251c-2.12-0.033-2.912,0.027-2.57,0.177C344.704,84.007,345.928,84.098,348.261,84.109z
				 M349.622,84.56c-4.369-0.041-7.555-0.353-8.258-0.76c-0.591-0.343,1.167-0.503,4.55-0.463c3.315,0.04,6.163,0.245,7.634,0.588
				C355.287,84.354,353.894,84.621,349.622,84.56z"/>
			<path style="fill-rule:evenodd;clip-rule:evenodd;" d="M342.324,82.936c0.59,0.004,1.177,0.007,1.765,0.011
				c-0.103-0.043-0.206-0.064-0.306-0.107c-0.19-0.064-0.469-0.087-1.063-0.091c-0.648-0.004-0.816,0.016-0.637,0.08
				C342.163,82.872,342.244,82.914,342.324,82.936z M349.398,83.001c0.333,0.085,0.688,0.171,1.057,0.257
				c-1.643-0.01-3.289-0.042-4.939-0.051c-1.663-0.009-3.332-0.041-5.01-0.05c-0.233-0.129-0.447-0.258-0.655-0.365
				c-0.348-0.215,0.22-0.253,1.94-0.241c1.05,0.007,1.807,0.033,2.4,0.122c-0.008-0.063,0.442-0.081,1.547-0.073
				c0.385,0.003,0.773,0.005,1.16,0.008c0,0,0.026,0,0.017,0c0.328,0.002,0.482-0.018,0.463-0.018c0.1,0,0.201,0.001,0.303,0.002
				c0.278,0.064,0.558,0.129,0.864,0.215c-0.395-0.003-0.701-0.005-0.859-0.006c-0.297-0.002-0.591-0.004-0.883-0.006
				c-0.914-0.006-1.186,0.013-0.951,0.078c0.111,0.042,0.226,0.085,0.335,0.107C347.259,82.988,348.326,82.995,349.398,83.001z"/>
			<path style="fill-rule:evenodd;clip-rule:evenodd;" d="M346.303,82.251c0.229,0.064,0.458,0.107,0.7,0.171
				c-1.237,0.012-2.489,0.034-3.764,0.035c-1.298,0.001-2.616,0.002-3.954-0.007c-0.104-0.043-0.207-0.086-0.308-0.15
				c0.83-0.015,1.655,0.001,2.474-0.003c0.808-0.004,1.619,0.013,2.419-0.002c-0.861-0.006-1.722-0.045-2.572-0.062
				c-0.846-0.017-1.69-0.033-2.531-0.04c-0.077-0.043-0.15-0.107-0.223-0.129c0.767-0.015,1.526,0.001,2.281-0.003
				c0.746-0.004,1.494-0.009,2.234-0.002c-0.789-0.028-1.58-0.023-2.36-0.041c-0.779-0.017-1.556-0.055-2.331-0.061
				c-0.075-0.043-0.147-0.086-0.215-0.107c1.16,0.009,2.332,0.051,3.513,0.072c1.191,0.021,2.394,0.062,3.619,0.072
				c0.188,0.043,0.377,0.086,0.58,0.15c-1.388,0.01-2.792,0.02-4.215,0.008C343.186,82.206,344.733,82.218,346.303,82.251z"/>
			<path style="fill-rule:evenodd;clip-rule:evenodd;" d="M339.777,81.674c0.755,0.028,1.521,0.035,2.292,0.063
				c-0.075-0.021-0.15-0.043-0.226-0.064C341.16,81.688,340.47,81.681,339.777,81.674z M344.398,81.779
				c0.157,0.042,0.315,0.085,0.481,0.128c-1.209-0.031-2.393-0.062-3.557-0.094c-1.151-0.031-2.285-0.062-3.402-0.093
				c-0.066-0.042-0.129-0.064-0.193-0.107c0.989-0.012,1.96-0.024,2.921-0.036c0.942-0.012,1.873-0.023,2.8-0.014
				c0.128,0.022,0.265,0.064,0.399,0.086c-0.258,0.019-0.516,0.016-0.776,0.014c0.136,0.043,0.271,0.064,0.411,0.107
				C343.786,81.774,344.091,81.777,344.398,81.779z"/>
			<path style="fill-rule:evenodd;clip-rule:evenodd;" d="M342.686,81.372c0.113,0.021,0.228,0.064,0.349,0.085
				c-0.707-0.007-1.409-0.015-2.108-0.022c-0.545,0.015-1.099,0.042-1.655,0.046c-0.566,0.004-1.142,0.009-1.725,0.025
				c-0.061-0.043-0.121-0.064-0.178-0.107c0.613,0.007,1.215-0.008,1.81-0.023c-0.665-0.028-1.321-0.035-1.97-0.062
				c-0.049-0.021-0.099-0.064-0.147-0.107c0.579,0.027,1.165,0.055,1.757,0.082c0.599,0.027,1.21,0.055,1.83,0.062
				C341.324,81.357,342.003,81.365,342.686,81.372z"/>
			<path style="fill-rule:evenodd;clip-rule:evenodd;" d="M391.528,123.063c-5.068-3.861-10.154-7.722-15.302-11.646
				c8.261,0.776,23.653,7.599,43.379,19.567c143.299,93.513,196.326,149.835,141.504,149.813c-55.584,0-126.643-56.5-185.805-147.62
				c-10.707-14.414-11.6-20.868-5.213-21.615c4.395,3.904,8.774,7.829,13.159,11.754c-3.417,0.32-3.296,2.528,1.737,7.848
				c31.922,37.257,55.615,54.869,72.259,54.914c16.374,0.066-0.548-19.043-49.998-56.406
				C401.625,125.811,396.184,123.58,391.528,123.063z"/>
			<path style="fill-rule:evenodd;clip-rule:evenodd;" d="M362.614,96.838c3.714,2.23,10.364,6.263,17.198,10.424
				c-7.845-0.091-15.726-0.183-23.696-0.274c-3.269-4.033-6.501-8.043-8.28-10.188c1.221,0.023,2.43,0.024,3.651,0.047
				c1.331,1.309,3.002,2.938,5.439,5.341c0.839,0,1.708,0.022,2.562,0.023c-2.274-2.016-4.097-3.625-5.352-4.74
				c1.192,0.023,2.385,0.024,3.578,0.047c1.47,1.094,3.609,2.724,6.278,4.762c1.001,0,2.017,0.023,3.032,0.024
				c-3.611-2.51-6.031-4.161-8.008-5.512C360.204,96.813,361.403,96.815,362.614,96.838z"/>
			<path style="fill-rule:evenodd;clip-rule:evenodd;" d="M357.354,93.664c0.854,0.515,1.873,1.116,3.229,1.931
				c-4.601-0.049-9.213-0.098-13.866-0.147c-0.665-0.815-1.158-1.416-1.576-1.93c1.452-0.448,2.789-0.896,3.991-1.343
				c0.146-0.107,0.566-0.192,1.173-0.276c-0.342,0.021-0.753,0.02-1.411,0.019c-1.698-0.024-3.405-0.027-5.111-0.051
				c-0.367-0.472-0.656-0.815-0.945-1.158c3.287,0.049,6.551,0.077,9.809,0.125c0.588,0.343,1.176,0.687,1.928,1.158
				c-0.934,0.448-1.988,0.895-3.173,1.343c-0.221,0.085-0.7,0.17-1.374,0.276c0.374-0.042,0.787-0.02,1.643-0.019
				C353.575,93.615,355.469,93.64,357.354,93.664z"/>
			<path style="fill-rule:evenodd;clip-rule:evenodd;" d="M349.099,88.667c0.449,0.279,0.898,0.558,1.341,0.815
				c-2.12-0.026-4.259-0.052-6.398-0.078c0.281,0.278,0.622,0.6,0.963,0.922c-0.827-0.001-1.662-0.003-2.497-0.026
				c-0.775-0.944-1.382-1.673-1.949-2.359c0.657,0.023,1.309,0.025,1.966,0.026c0.19,0.193,0.43,0.408,0.672,0.644
				C345.168,88.636,347.139,88.662,349.099,88.667z"/>
			<path style="fill-rule:evenodd;clip-rule:evenodd;" d="M341.522,87.151c0.422,0.001,0.851,0.002,1.273,0.003
				c-0.107-0.086-0.19-0.15-0.278-0.214c-0.174-0.15-0.389-0.193-0.813-0.216c-0.467-0.001-0.576,0.041-0.405,0.213
				C341.366,87.001,341.437,87.065,341.522,87.151z M346.647,87.208c0.347,0.193,0.684,0.408,1.021,0.601
				c-2.418-0.028-4.842-0.055-7.282-0.083c-0.251-0.3-0.505-0.601-0.709-0.836c-0.359-0.451,0-0.621,1.234-0.595
				c0.749,0.002,1.319,0.089,1.803,0.241c-0.06-0.15,0.237-0.213,1.029-0.21c0.272,0,0.55,0.001,0.826,0.002
				c0,0,0.018,0,0.005-0.021c0.24,0.001,0.345,0.001,0.317-0.042c0.072,0.021,0.144,0.022,0.221,0.022
				c0.271,0.171,0.534,0.322,0.797,0.472c-0.283,0.021-0.497,0.02-0.617,0.02c-0.213,0-0.425-0.001-0.637-0.002
				c-0.657-0.023-0.843,0.041-0.633,0.191c0.095,0.064,0.181,0.128,0.298,0.214C345.099,87.182,345.868,87.184,346.647,87.208z"/>
			<path style="fill-rule:evenodd;clip-rule:evenodd;" d="M340.291,85.586c0.677,0.045,1.355,0.09,2.045,0.135
				c-0.105-0.086-0.215-0.171-0.309-0.236C341.45,85.526,340.873,85.545,340.291,85.586z M344.418,85.857
				c0.215,0.128,0.426,0.257,0.633,0.407c-2.168-0.178-4.266-0.334-6.294-0.512c-0.104-0.128-0.204-0.257-0.292-0.365
				c1.643-0.101,3.211-0.18,4.706-0.281c0.174,0.107,0.351,0.193,0.522,0.3c-0.217,0.021-0.428,0.042-0.644,0.041
				c0.165,0.107,0.353,0.236,0.553,0.364C343.874,85.812,344.143,85.834,344.418,85.857z"/>
			<path style="fill-rule:evenodd;clip-rule:evenodd;" d="M342.008,84.419c0.309,0.193,0.662,0.386,1.013,0.601
				c-1.632-0.028-3.269-0.034-4.912-0.062c-0.076-0.086-0.149-0.172-0.223-0.258c1.155,0.005,2.303,0.01,3.454,0.036
				c-0.173-0.129-0.34-0.236-0.489-0.343C341.239,84.395,341.623,84.418,342.008,84.419z"/>
			<path style="fill-rule:evenodd;clip-rule:evenodd;" d="M338.075,83.805c0.244,0.001,0.488,0.002,0.732,0.003
				c-0.035-0.042-0.064-0.064-0.096-0.086c-0.062-0.064-0.176-0.064-0.427-0.066c-0.276-0.001-0.348-0.001-0.289,0.062
				C338.022,83.741,338.045,83.762,338.075,83.805z M341.035,83.84c0.108,0.064,0.218,0.129,0.324,0.172
				c-1.355-0.006-2.71-0.034-4.072-0.041c-0.077-0.107-0.157-0.193-0.23-0.279c-0.128-0.15,0.121-0.213,0.865-0.209
				c0.453,0.002,0.777,0.046,1.018,0.091c0.014-0.043,0.215-0.063,0.698-0.061c0.165,0.001,0.333,0.002,0.502,0.003
				c0,0,0.011,0,0.008,0c0.146,0,0.212,0.001,0.208-0.02c0.044,0,0.088,0,0.134,0c0.095,0.064,0.189,0.128,0.286,0.171
				c-0.174,0-0.307-0.001-0.378-0.002c-0.125,0-0.25-0.001-0.376-0.002c-0.388-0.002-0.512,0.019-0.438,0.062
				c0.035,0.021,0.065,0.042,0.103,0.086C340.137,83.815,340.584,83.817,341.035,83.84z"/>
			<path style="fill-rule:evenodd;clip-rule:evenodd;" d="M339.795,83.09c0.182,0.107,0.382,0.215,0.596,0.343
				c-1.192-0.006-2.384-0.013-3.581-0.041c-0.103-0.128-0.199-0.236-0.285-0.343c0.265,0.002,0.527,0.003,0.794,0.005
				c0.065,0.085,0.128,0.15,0.202,0.214c0.148,0,0.299,0.001,0.45,0.002c-0.068-0.064-0.13-0.107-0.19-0.172
				c0.254,0.002,0.509,0.003,0.763,0.005c0.07,0.064,0.143,0.107,0.223,0.171c0.177,0.001,0.356,0.002,0.536,0.003
				c-0.108-0.064-0.205-0.128-0.299-0.193C339.265,83.087,339.531,83.088,339.795,83.09z"/>
			<path style="fill-rule:evenodd;clip-rule:evenodd;" d="M338.713,83.041c-0.056-0.043-0.108-0.086-0.16-0.128
				c0.222,0.001,0.292-0.02,0.245-0.041c-0.04-0.021-0.146-0.043-0.284-0.044c-0.113-0.001-0.184,0.02-0.207,0.041
				c-0.011,0-0.013,0.021-0.007,0.021c-0.056,0.042-0.114,0.084-0.182,0.084c-0.139,0.021-0.377,0.041-0.691,0.039
				c-0.641-0.004-1.082-0.071-1.155-0.178c-0.072-0.086,0.226-0.126,0.818-0.123c0.037,0.021,0.071,0.042,0.108,0.086
				c-0.174-0.001-0.244,0.02-0.216,0.041c0.025,0.042,0.101,0.043,0.248,0.044c0.104,0.001,0.171-0.02,0.204-0.041
				c0.007,0,0.015,0,0.012,0c0.005-0.021,0.015-0.021,0.023-0.021c0.037-0.042,0.089-0.084,0.149-0.084
				c0.137-0.02,0.338-0.019,0.646-0.017c0.658,0.004,1.105,0.05,1.272,0.157C339.698,82.983,339.398,83.045,338.713,83.041z"/>
			<path style="fill-rule:evenodd;clip-rule:evenodd;" d="M338.719,82.425c0.13,0.064,0.263,0.15,0.405,0.236
				c-0.976-0.006-1.952-0.013-2.931-0.02c-0.068-0.085-0.132-0.15-0.194-0.236c0.217,0.002,0.438,0.003,0.657,0.005
				c0.047,0.043,0.095,0.086,0.144,0.15c0.122,0,0.244,0.001,0.369,0.002c-0.043-0.043-0.089-0.085-0.132-0.129
				c0.211,0.002,0.422,0.003,0.633,0.005c0.051,0.042,0.104,0.086,0.156,0.128c0.146,0.001,0.293,0.002,0.441,0.003
				c-0.068-0.064-0.139-0.107-0.208-0.15C338.276,82.422,338.498,82.423,338.719,82.425z"/>
			<path style="fill-rule:evenodd;clip-rule:evenodd;" d="M336.527,82.282c0.164,0.001,0.326,0.002,0.49,0.003
				c-0.014-0.021-0.028-0.021-0.042-0.043c-0.03-0.021-0.101-0.021-0.271-0.023c-0.187-0.001-0.24-0.001-0.212,0.02
				C336.502,82.26,336.515,82.26,336.527,82.282z M338.512,82.296c0.047,0.043,0.095,0.064,0.141,0.086
				c-0.896-0.007-1.792-0.013-2.69-0.02c-0.032-0.043-0.067-0.085-0.1-0.129c-0.058-0.085,0.123-0.105,0.633-0.101
				c0.309,0.002,0.522,0.025,0.671,0.047c0.026-0.021,0.173-0.02,0.503-0.017c0.115,0.001,0.231,0.001,0.347,0.002
				c0,0,0.008,0,0.007,0c0.1,0.001,0.147,0.001,0.148-0.02c0.03,0,0.06,0,0.092,0.001c0.043,0.042,0.088,0.064,0.131,0.085
				c-0.121-0.001-0.211-0.002-0.26-0.002c-0.084,0-0.169-0.001-0.255-0.002c-0.264-0.002-0.354-0.003-0.318,0.041
				c0.015,0,0.03,0,0.045,0.021C337.909,82.292,338.21,82.294,338.512,82.296z"/>
			<path style="fill-rule:evenodd;clip-rule:evenodd;" d="M338.123,82.061c-0.772,0.015-1.558,0.03-2.358,0.045
				c-0.02-0.021-0.039-0.043-0.058-0.064c0.507-0.017,1.009-0.035,1.509-0.009c-0.528-0.047-1.052-0.051-1.57-0.077
				c-0.017-0.021-0.036-0.043-0.054-0.064c0.792,0.028,1.6,0.077,2.417,0.105C338.045,82.018,338.083,82.039,338.123,82.061z"/>
			<path style="fill-rule:evenodd;clip-rule:evenodd;" d="M336.199,81.811c0.262,0.002,0.528,0.005,0.794,0.028
				c-0.017,0-0.035-0.021-0.05-0.021C336.694,81.794,336.446,81.792,336.199,81.811z M337.789,81.867
				c0.034,0.022,0.066,0.022,0.101,0.043c-0.8-0.028-1.583-0.056-2.354-0.083c-0.016-0.021-0.031-0.043-0.049-0.064
				c0.709-0.015,1.406-0.009,2.092-0.023c0.03,0.021,0.062,0.043,0.091,0.064c-0.095-0.001-0.189-0.002-0.282-0.003
				c0.03,0.021,0.06,0.043,0.089,0.064C337.581,81.866,337.684,81.867,337.789,81.867z"/>
			<path style="fill-rule:evenodd;clip-rule:evenodd;" d="M337.408,81.653c0.028,0,0.059,0.021,0.087,0.043
				c-0.518-0.005-1.035-0.031-1.549-0.036c0.016,0,0.033,0.021,0.05,0.043c-0.187-0.001-0.375-0.003-0.56-0.005
				c-0.04-0.043-0.078-0.086-0.117-0.129c0.175,0.002,0.352,0.003,0.528,0.005c0.015,0,0.03,0.021,0.045,0.042
				C336.396,81.622,336.903,81.648,337.408,81.653z"/>
			<path style="fill-rule:evenodd;clip-rule:evenodd;" d="M337.225,81.503c0.027,0.021,0.054,0.042,0.081,0.064
				c-0.668-0.007-1.335-0.013-2.001-0.02c-0.013-0.021-0.027-0.043-0.041-0.064C335.916,81.49,336.57,81.496,337.225,81.503z"/>
			<path style="fill-rule:evenodd;clip-rule:evenodd;" d="M336.165,81.45c0.36,0.003,0.509,0.005,0.483-0.016
				c-0.026-0.021-0.196-0.045-0.547-0.048c-0.355-0.004-0.507,0.016-0.489,0.037S335.8,81.447,336.165,81.45z M336.22,81.493
				c-0.636-0.006-1.047-0.032-1.082-0.075c-0.034-0.042,0.312-0.082,0.909-0.076c0.595,0.006,1.004,0.053,1.076,0.096
				C337.197,81.482,336.853,81.5,336.22,81.493z"/>
			<path style="fill-rule:evenodd;clip-rule:evenodd;" d="M336.868,81.31c0.021,0,0.041,0.021,0.061,0.021
				c-0.605-0.006-1.209-0.013-1.811-0.019c-0.01,0-0.02-0.021-0.03-0.021c0.263-0.019,0.527-0.016,0.786-0.034
				c0.039,0,0.122,0.001,0.24,0.002c-0.062-0.001-0.131-0.001-0.237-0.002c-0.274-0.003-0.548-0.006-0.821-0.009
				c-0.009-0.021-0.019-0.043-0.028-0.064c0.57,0.006,1.143,0.013,1.717,0.019c0.02,0.021,0.039,0.043,0.058,0.064
				c-0.254-0.003-0.509,0.016-0.767,0.034c-0.045,0-0.134-0.001-0.246-0.002c0.058,0,0.119,0.001,0.244,0.002
				C336.312,81.304,336.59,81.307,336.868,81.31z"/>
			<path style="fill-rule:evenodd;clip-rule:evenodd;" d="M310.097,120.841c18.323,0.18,36.429,0.359,54.427,0.559
				c5.478,7.529,38.02,61.84,72.257,118.877c-69.92-0.088-140.654-0.168-211.999-0.244c-71.955-0.078-144.827-0.154-218.207-0.223
				c157.699-77.348,239.001-117.255,259.075-127.125c21.257-3.339,38.493-6.12,51.995-7.377c0.949-0.106,4.512-0.34,10.653-0.893
				c-4.461-0.433-7.75-0.843-9.27-1.038c-9.646-1.532-18.059-3.085-25.157-4.618c4.585-2.253,8.778-4.312,11.815-5.814
				c6.516,0.074,12.996,0.147,19.394,0.221c6.352,0.073,12.659,0.125,18.911,0.199c0.737,1.008,1.926,2.595,3.108,4.183
				c-7.972-0.116-15.991-0.21-24.079-0.326c-3.01-0.025-5.715-0.071-8.749-0.095c2.44,0.174,5.143,0.456,8.082,0.717
				c0.158,0,0.305,0,0.475,0.022c8.241,0.76,17.113,1.991,27.011,3.372c1.688,2.295,3.366,4.569,5.633,7.658
				c-11.622,3.06-26.068,6.098-43.396,9.115c-5.227,0.92-11.091,1.562-23.675,3.016
				C298.446,120.922,305.956,120.797,310.097,120.841z"/>
			<path style="fill-rule:evenodd;clip-rule:evenodd;" d="M327.408,89.391c5.221,0.054,7.512-0.221,7.413-0.885
				c-0.098-0.622-2.064-0.885-6.352-0.938c-4.401-0.032-6.676,0.178-7.504,0.778C320.062,88.989,322.048,89.316,327.408,89.391z
				 M326.016,91.729c-11.369-0.125-15.315-1.66-11.516-3.462c2.723-1.309,8.054-1.855,14.62-1.772
				c6.405,0.061,10.825,0.716,11.93,2.067C342.588,90.428,337.083,91.854,326.016,91.729z"/>
			<path style="fill-rule:evenodd;clip-rule:evenodd;" d="M337.708,85c0.162,0.193,0.32,0.408,0.5,0.644
				c-2.1-0.028-4.197-0.035-6.309-0.063c-2.125-0.028-4.259-0.057-6.4-0.085c-0.286,0.236-0.572,0.472-0.902,0.729
				c-1.703-0.026-3.406-0.053-5.118-0.058c1.477-0.73,2.671-1.309,3.661-1.781c1.258,0.005,2.513,0.01,3.768,0.036
				c-0.194,0.15-0.387,0.3-0.585,0.451c1.918,0.028,3.829,0.036,5.732,0.064C333.946,84.964,335.828,84.972,337.708,85z"/>
			<path style="fill-rule:evenodd;clip-rule:evenodd;" d="M330.648,83.92c2.394,0.011,3.458-0.049,3.432-0.221
				c-0.023-0.128-1.009-0.198-3.176-0.23c-2.218-0.011-3.295,0.027-3.482,0.156C327.207,83.797,328.2,83.888,330.648,83.92z
				 M330.391,84.349c-4.604-0.062-6.868-0.373-6.06-0.759c0.683-0.322,3.226-0.461,6.755-0.42c3.458,0.04,5.73,0.245,6.006,0.566
				C337.423,84.143,334.898,84.389,330.391,84.349z"/>
			<path style="fill-rule:evenodd;clip-rule:evenodd;" d="M328.768,82.769c0.611,0.003,1.222,0.007,1.833,0.032
				c0.028-0.042,0.058-0.064,0.084-0.107c0.053-0.064-0.155-0.087-0.766-0.113c-0.675-0.004-0.923,0.016-1.021,0.081
				C328.854,82.704,328.81,82.747,328.768,82.769z M336.103,82.854c0.058,0.086,0.118,0.172,0.179,0.236
				c-1.704-0.009-3.419-0.041-5.14-0.05c-1.728-0.009-3.469-0.041-5.215-0.05c0.26-0.107,0.493-0.236,0.718-0.343
				c0.381-0.193,1.237-0.252,3.013-0.241c1.085,0.007,1.754,0.055,2.119,0.122c0.245-0.063,0.811-0.081,1.962-0.073
				c0.4,0.002,0.8,0.005,1.2,0.008c0,0,0.025,0,0.024,0c0.339,0.002,0.517-0.019,0.536,0.003c0.103,0,0.205,0.001,0.31,0.002
				c0.049,0.064,0.097,0.128,0.15,0.193c-0.436-0.002-0.764-0.004-0.929-0.006c-0.306-0.002-0.609-0.004-0.912-0.005
				c-0.943-0.006-1.308,0.013-1.32,0.056c-0.006,0.043-0.012,0.086-0.018,0.107C333.889,82.82,334.996,82.848,336.103,82.854z"/>
			<path style="fill-rule:evenodd;clip-rule:evenodd;" d="M335.571,82.125c0.041,0.064,0.079,0.128,0.122,0.171
				c-1.345,0.012-2.714,0.014-4.104,0.014c-1.417,0.001-2.86,0.002-4.328,0.014c0.114-0.043,0.225-0.086,0.335-0.129
				c0.889-0.015,1.77-0.02,2.645-0.024c0.865-0.004,1.73-0.009,2.586-0.002c-0.847-0.028-1.69-0.045-2.524-0.062
				c-0.831-0.017-1.66-0.034-2.483-0.04c0.083-0.043,0.161-0.086,0.24-0.107c0.817-0.015,1.631,0.002,2.435-0.003
				c0.796-0.004,1.59-0.009,2.377-0.024c-0.779-0.006-1.557-0.024-2.328-0.041c-0.768-0.017-1.535-0.034-2.296-0.04
				c0.082-0.042,0.158-0.086,0.233-0.107c1.124,0.01,2.262,0.052,3.408,0.072c1.157,0.021,2.325,0.062,3.504,0.072
				c0.032,0.042,0.066,0.085,0.101,0.15c-1.473,0.01-2.973-0.001-4.494-0.013C332.514,82.082,334.037,82.093,335.571,82.125z"/>
			<path style="fill-rule:evenodd;clip-rule:evenodd;" d="M330.816,81.571c0.726,0.028,1.457,0.035,2.199,0.063
				c0.002-0.021,0.006-0.043,0.01-0.064C332.294,81.584,331.558,81.578,330.816,81.571z M335.241,81.675
				c0.028,0.043,0.055,0.086,0.083,0.129c-1.139-0.031-2.262-0.062-3.367-0.093c-1.09-0.03-2.166-0.062-3.223-0.093
				c0.07-0.043,0.139-0.064,0.207-0.107c1.065-0.011,2.115-0.013,3.145-0.014c1.014-0.001,2.009-0.023,2.991-0.014
				c0.021,0.021,0.046,0.043,0.069,0.086c-0.272-0.003-0.545-0.005-0.819-0.007c0.014,0.042,0.027,0.064,0.041,0.107
				C334.657,81.67,334.949,81.672,335.241,81.675z"/>
			<path style="fill-rule:evenodd;clip-rule:evenodd;" d="M334.944,81.289c0.02,0.022,0.04,0.064,0.061,0.086
				c-0.701-0.007-1.4-0.014-2.1-0.021c-0.605,0.015-1.219,0.042-1.84,0.046c-0.633,0.004-1.275,0.009-1.929,0.024
				c0.064-0.042,0.127-0.064,0.188-0.107c0.672,0.007,1.332-0.008,1.984-0.023c-0.615-0.027-1.218-0.034-1.813-0.062
				c0.054-0.021,0.106-0.064,0.159-0.107c0.525,0.027,1.056,0.056,1.597,0.083c0.549,0.027,1.106,0.055,1.673,0.062
				C333.597,81.275,334.269,81.282,334.944,81.289z"/>
		</g>
	</g>
</svg>
